<svg xmlns="http://www.w3.org/2000/svg" xmlns:xlink="http://www.w3.org/1999/xlink" width="200" zoomAndPan="magnify" viewBox="0 0 150 74.999997" height="100" preserveAspectRatio="xMidYMid meet" version="1.0"><defs><g/><clipPath id="1bc5df1fc5"><path d="M 85 5 L 99.101562 5 L 99.101562 30 L 85 30 Z M 85 5 " clip-rule="nonzero"/></clipPath><clipPath id="678a74f736"><path d="M 51.441406 5 L 66 5 L 66 30 L 51.441406 30 Z M 51.441406 5 " clip-rule="nonzero"/></clipPath><clipPath id="ec8f701744"><path d="M 66 0 L 83 0 L 83 34.90625 L 66 34.90625 Z M 66 0 " clip-rule="nonzero"/></clipPath></defs><g clip-path="url(#1bc5df1fc5)"><path fill="#3f51b5" d="M 88.632812 29.089844 L 85.144531 26.179688 L 93.046875 17.453125 L 85.144531 8.726562 L 88.632812 5.816406 L 99.085938 17.453125 Z M 88.632812 29.089844 " fill-opacity="1" fill-rule="nonzero"/></g><g clip-path="url(#678a74f736)"><path fill="#3f51b5" d="M 61.910156 29.089844 L 51.457031 17.453125 L 61.910156 5.816406 L 65.398438 8.726562 L 57.378906 17.453125 L 65.398438 26.179688 Z M 61.910156 29.089844 " fill-opacity="1" fill-rule="nonzero"/></g><g clip-path="url(#ec8f701744)"><path fill="#2196f3" d="M 71.207031 34.90625 L 66.789062 33.394531 L 78.175781 0 L 82.589844 1.511719 Z M 71.207031 34.90625 " fill-opacity="1" fill-rule="nonzero"/></g><g fill="#ff00ff" fill-opacity="1"><g transform="translate(31.082044, 54.068018)"><g><path d="M 4.015625 -0.453125 C 4.015625 -0.347656 3.976562 -0.242188 3.90625 -0.140625 C 3.832031 -0.046875 3.734375 0 3.609375 0 L 2.375 0 C 2.269531 0 2.175781 -0.0390625 2.09375 -0.125 C 2.007812 -0.21875 1.96875 -0.328125 1.96875 -0.453125 L 1.96875 -16.25 C 1.96875 -16.375 2.003906 -16.476562 2.078125 -16.5625 C 2.160156 -16.644531 2.257812 -16.6875 2.375 -16.6875 L 3.609375 -16.6875 C 3.878906 -16.6875 4.015625 -16.539062 4.015625 -16.25 Z M 4.015625 -0.453125 "/></g></g></g><g fill="#ff00ff" fill-opacity="1"><g transform="translate(34.403184, 54.068018)"><g><path d="M 9.34375 -3.09375 C 9.34375 -1.957031 8.957031 -1.128906 8.1875 -0.609375 C 7.414062 -0.0976562 6.398438 0.15625 5.140625 0.15625 C 4.867188 0.15625 4.523438 0.144531 4.109375 0.125 C 3.691406 0.101562 3.257812 0.0664062 2.8125 0.015625 C 2.375 -0.0234375 1.96875 -0.0859375 1.59375 -0.171875 C 1.28125 -0.253906 1.125 -0.40625 1.125 -0.625 L 1.125 -1.421875 C 1.125 -1.640625 1.257812 -1.75 1.53125 -1.75 C 1.5625 -1.75 1.578125 -1.75 1.578125 -1.75 C 1.585938 -1.75 1.597656 -1.75 1.609375 -1.75 C 1.972656 -1.707031 2.378906 -1.664062 2.828125 -1.625 C 3.273438 -1.59375 3.703125 -1.5625 4.109375 -1.53125 C 4.523438 -1.507812 4.867188 -1.5 5.140625 -1.5 C 5.867188 -1.5 6.421875 -1.613281 6.796875 -1.84375 C 7.171875 -2.082031 7.359375 -2.5 7.359375 -3.09375 C 7.359375 -3.4375 7.238281 -3.738281 7 -4 C 6.757812 -4.269531 6.320312 -4.59375 5.6875 -4.96875 L 3.40625 -6.3125 C 2.71875 -6.726562 2.164062 -7.191406 1.75 -7.703125 C 1.332031 -8.210938 1.125 -8.816406 1.125 -9.515625 C 1.125 -10.296875 1.300781 -10.898438 1.65625 -11.328125 C 2.019531 -11.765625 2.507812 -12.066406 3.125 -12.234375 C 3.738281 -12.410156 4.425781 -12.5 5.1875 -12.5 C 5.8125 -12.5 6.421875 -12.472656 7.015625 -12.421875 C 7.609375 -12.367188 8.164062 -12.300781 8.6875 -12.21875 C 8.96875 -12.164062 9.109375 -12.015625 9.109375 -11.765625 L 9.109375 -11.03125 C 9.109375 -10.769531 8.984375 -10.640625 8.734375 -10.640625 C 8.722656 -10.640625 8.710938 -10.640625 8.703125 -10.640625 C 8.691406 -10.640625 8.679688 -10.640625 8.671875 -10.640625 C 8.273438 -10.671875 7.75 -10.707031 7.09375 -10.75 C 6.445312 -10.800781 5.8125 -10.828125 5.1875 -10.828125 C 4.5625 -10.828125 4.054688 -10.75 3.671875 -10.59375 C 3.285156 -10.445312 3.09375 -10.085938 3.09375 -9.515625 C 3.09375 -9.191406 3.222656 -8.898438 3.484375 -8.640625 C 3.753906 -8.390625 4.140625 -8.113281 4.640625 -7.8125 L 6.875 -6.484375 C 7.800781 -5.929688 8.441406 -5.394531 8.796875 -4.875 C 9.160156 -4.351562 9.34375 -3.757812 9.34375 -3.09375 Z M 9.34375 -3.09375 "/></g></g></g><g fill="#ff00ff" fill-opacity="1"><g transform="translate(42.191222, 54.068018)"><g><path d="M 7.09375 -11.140625 C 7.09375 -11.015625 7.066406 -10.921875 7.015625 -10.859375 C 6.960938 -10.804688 6.832031 -10.78125 6.625 -10.78125 C 5.863281 -10.78125 5.257812 -10.765625 4.8125 -10.734375 C 4.375 -10.703125 3.9375 -10.640625 3.5 -10.546875 L 3.5 -0.453125 C 3.5 -0.347656 3.460938 -0.242188 3.390625 -0.140625 C 3.316406 -0.046875 3.21875 0 3.09375 0 L 1.9375 0 C 1.832031 0 1.738281 -0.0390625 1.65625 -0.125 C 1.570312 -0.21875 1.53125 -0.328125 1.53125 -0.453125 L 1.53125 -11.359375 C 1.53125 -11.585938 1.664062 -11.757812 1.9375 -11.875 C 2.570312 -12.15625 3.28125 -12.328125 4.0625 -12.390625 C 4.84375 -12.460938 5.695312 -12.5 6.625 -12.5 C 6.769531 -12.5 6.882812 -12.484375 6.96875 -12.453125 C 7.050781 -12.429688 7.09375 -12.335938 7.09375 -12.171875 Z M 7.09375 -11.140625 "/></g></g></g><g fill="#ff00ff" fill-opacity="1"><g transform="translate(47.465225, 54.068018)"><g><path d="M 10.625 -0.875 C 10.625 -0.726562 10.597656 -0.613281 10.546875 -0.53125 C 10.492188 -0.457031 10.363281 -0.398438 10.15625 -0.359375 C 9.550781 -0.210938 8.878906 -0.09375 8.140625 0 C 7.410156 0.101562 6.703125 0.15625 6.015625 0.15625 C 4.335938 0.15625 3.101562 -0.347656 2.3125 -1.359375 C 1.519531 -2.367188 1.125 -3.710938 1.125 -5.390625 L 1.125 -6.953125 C 1.125 -8.648438 1.519531 -10 2.3125 -11 C 3.101562 -12 4.335938 -12.5 6.015625 -12.5 C 6.691406 -12.5 7.398438 -12.453125 8.140625 -12.359375 C 8.878906 -12.265625 9.550781 -12.140625 10.15625 -11.984375 C 10.363281 -11.941406 10.492188 -11.882812 10.546875 -11.8125 C 10.597656 -11.75 10.625 -11.632812 10.625 -11.46875 Z M 8.640625 -1.734375 L 8.640625 -10.625 C 8.347656 -10.675781 7.957031 -10.722656 7.46875 -10.765625 C 6.976562 -10.816406 6.492188 -10.84375 6.015625 -10.84375 C 4.910156 -10.84375 4.144531 -10.492188 3.71875 -9.796875 C 3.300781 -9.097656 3.09375 -8.148438 3.09375 -6.953125 L 3.09375 -5.390625 C 3.09375 -4.203125 3.300781 -3.253906 3.71875 -2.546875 C 4.144531 -1.847656 4.910156 -1.5 6.015625 -1.5 C 6.492188 -1.5 6.972656 -1.519531 7.453125 -1.5625 C 7.929688 -1.613281 8.328125 -1.671875 8.640625 -1.734375 Z M 8.640625 -1.734375 "/></g></g></g><g fill="#ff00ff" fill-opacity="1"><g transform="translate(56.936767, 54.068018)"><g><path d="M 11.046875 -6.046875 C 11.046875 -5.710938 10.90625 -5.546875 10.625 -5.546875 L 3.09375 -5.546875 L 3.09375 -5.234375 C 3.09375 -3.898438 3.351562 -2.957031 3.875 -2.40625 C 4.40625 -1.851562 5.1875 -1.578125 6.21875 -1.578125 C 6.875 -1.578125 7.578125 -1.597656 8.328125 -1.640625 C 9.078125 -1.679688 9.707031 -1.738281 10.21875 -1.8125 C 10.25 -1.8125 10.269531 -1.8125 10.28125 -1.8125 C 10.300781 -1.8125 10.316406 -1.8125 10.328125 -1.8125 C 10.421875 -1.8125 10.503906 -1.789062 10.578125 -1.75 C 10.648438 -1.707031 10.6875 -1.625 10.6875 -1.5 L 10.6875 -0.734375 C 10.6875 -0.585938 10.65625 -0.472656 10.59375 -0.390625 C 10.539062 -0.304688 10.421875 -0.25 10.234375 -0.21875 C 9.585938 -0.101562 8.941406 -0.015625 8.296875 0.046875 C 7.660156 0.117188 6.96875 0.15625 6.21875 0.15625 C 5.570312 0.15625 4.945312 0.0703125 4.34375 -0.09375 C 3.738281 -0.269531 3.191406 -0.5625 2.703125 -0.96875 C 2.210938 -1.375 1.828125 -1.921875 1.546875 -2.609375 C 1.265625 -3.304688 1.125 -4.179688 1.125 -5.234375 L 1.125 -7.25 C 1.125 -8.851562 1.550781 -10.128906 2.40625 -11.078125 C 3.269531 -12.023438 4.503906 -12.5 6.109375 -12.5 C 7.753906 -12.5 8.988281 -12.023438 9.8125 -11.078125 C 10.632812 -10.128906 11.046875 -8.851562 11.046875 -7.25 Z M 9.046875 -7.046875 L 9.046875 -7.25 C 9.046875 -8.519531 8.800781 -9.425781 8.3125 -9.96875 C 7.832031 -10.507812 7.097656 -10.78125 6.109375 -10.78125 C 5.148438 -10.78125 4.40625 -10.492188 3.875 -9.921875 C 3.351562 -9.359375 3.09375 -8.46875 3.09375 -7.25 L 3.09375 -7.046875 Z M 9.046875 -7.046875 "/></g></g></g><g fill="#ff00ff" fill-opacity="1"><g transform="translate(66.475649, 54.068018)"><g><path d="M 3.734375 -0.453125 C 3.734375 -0.347656 3.691406 -0.242188 3.609375 -0.140625 C 3.535156 -0.046875 3.441406 0 3.328125 0 L 2.15625 0 C 2.050781 0 1.957031 -0.0390625 1.875 -0.125 C 1.789062 -0.21875 1.75 -0.328125 1.75 -0.453125 L 1.75 -16.453125 C 1.75 -16.578125 1.785156 -16.679688 1.859375 -16.765625 C 1.929688 -16.847656 2.03125 -16.890625 2.15625 -16.890625 L 3.328125 -16.890625 C 3.597656 -16.890625 3.734375 -16.742188 3.734375 -16.453125 Z M 3.734375 -0.453125 "/></g></g></g><g fill="#ff00ff" fill-opacity="1"><g transform="translate(69.280512, 54.068018)"><g/></g></g><g fill="#ff00ff" fill-opacity="1"><g transform="translate(72.15272, 54.068018)"><g><path d="M 12.703125 -4.609375 C 12.703125 -3.660156 12.523438 -2.878906 12.171875 -2.265625 C 11.828125 -1.648438 11.347656 -1.160156 10.734375 -0.796875 C 10.128906 -0.441406 9.4375 -0.191406 8.65625 -0.046875 C 7.875 0.0859375 7.039062 0.15625 6.15625 0.15625 C 5.414062 0.15625 4.726562 0.132812 4.09375 0.09375 C 3.457031 0.0625 2.925781 0.015625 2.5 -0.046875 C 2.238281 -0.078125 2.046875 -0.148438 1.921875 -0.265625 C 1.804688 -0.390625 1.75 -0.59375 1.75 -0.875 L 1.75 -15.828125 C 1.75 -16.335938 1.988281 -16.613281 2.46875 -16.65625 C 2.84375 -16.707031 3.347656 -16.75 3.984375 -16.78125 C 4.617188 -16.820312 5.304688 -16.84375 6.046875 -16.84375 C 7.242188 -16.84375 8.335938 -16.710938 9.328125 -16.453125 C 10.328125 -16.203125 11.125 -15.765625 11.71875 -15.140625 C 12.320312 -14.523438 12.625 -13.644531 12.625 -12.5 L 12.625 -12.140625 C 12.625 -11.316406 12.410156 -10.597656 11.984375 -9.984375 C 11.566406 -9.378906 10.976562 -8.925781 10.21875 -8.625 C 11 -8.351562 11.609375 -7.894531 12.046875 -7.25 C 12.484375 -6.601562 12.703125 -5.847656 12.703125 -4.984375 Z M 10.578125 -12.140625 L 10.578125 -12.5 C 10.578125 -13.21875 10.390625 -13.765625 10.015625 -14.140625 C 9.640625 -14.515625 9.109375 -14.769531 8.421875 -14.90625 C 7.742188 -15.039062 6.953125 -15.109375 6.046875 -15.109375 C 5.671875 -15.109375 5.28125 -15.097656 4.875 -15.078125 C 4.476562 -15.066406 4.125 -15.054688 3.8125 -15.046875 L 3.8125 -9.46875 L 7.28125 -9.46875 C 8.144531 -9.46875 8.816406 -9.59375 9.296875 -9.84375 C 9.773438 -10.09375 10.109375 -10.421875 10.296875 -10.828125 C 10.484375 -11.242188 10.578125 -11.679688 10.578125 -12.140625 Z M 10.671875 -4.609375 L 10.671875 -4.984375 C 10.671875 -5.472656 10.570312 -5.9375 10.375 -6.375 C 10.175781 -6.8125 9.828125 -7.164062 9.328125 -7.4375 C 8.835938 -7.707031 8.15625 -7.84375 7.28125 -7.84375 L 3.8125 -7.84375 L 3.8125 -1.65625 C 4.1875 -1.644531 4.570312 -1.628906 4.96875 -1.609375 C 5.363281 -1.585938 5.757812 -1.578125 6.15625 -1.578125 C 7.082031 -1.578125 7.878906 -1.660156 8.546875 -1.828125 C 9.222656 -2.003906 9.742188 -2.304688 10.109375 -2.734375 C 10.484375 -3.171875 10.671875 -3.796875 10.671875 -4.609375 Z M 10.671875 -4.609375 "/></g></g></g><g fill="#ff00ff" fill-opacity="1"><g transform="translate(83.307767, 54.068018)"><g><path d="M 11.109375 -5.328125 C 11.109375 -3.671875 10.6875 -2.34375 9.84375 -1.34375 C 9 -0.34375 7.753906 0.15625 6.109375 0.15625 C 4.460938 0.15625 3.21875 -0.34375 2.375 -1.34375 C 1.539062 -2.34375 1.125 -3.671875 1.125 -5.328125 L 1.125 -7.03125 C 1.125 -8.675781 1.539062 -10 2.375 -11 C 3.21875 -12 4.460938 -12.5 6.109375 -12.5 C 7.753906 -12.5 9 -12 9.84375 -11 C 10.6875 -10 11.109375 -8.675781 11.109375 -7.03125 Z M 9.140625 -5.328125 L 9.140625 -7.03125 C 9.140625 -8.175781 8.898438 -9.085938 8.421875 -9.765625 C 7.941406 -10.441406 7.171875 -10.78125 6.109375 -10.78125 C 5.054688 -10.78125 4.289062 -10.441406 3.8125 -9.765625 C 3.332031 -9.085938 3.09375 -8.175781 3.09375 -7.03125 L 3.09375 -5.328125 C 3.09375 -4.179688 3.332031 -3.269531 3.8125 -2.59375 C 4.289062 -1.914062 5.054688 -1.578125 6.109375 -1.578125 C 7.148438 -1.578125 7.914062 -1.910156 8.40625 -2.578125 C 8.894531 -3.253906 9.140625 -4.171875 9.140625 -5.328125 Z M 9.140625 -5.328125 "/></g></g></g><g fill="#ff00ff" fill-opacity="1"><g transform="translate(92.869098, 54.068018)"><g><path d="M 7.09375 -11.140625 C 7.09375 -11.015625 7.066406 -10.921875 7.015625 -10.859375 C 6.960938 -10.804688 6.832031 -10.78125 6.625 -10.78125 C 5.863281 -10.78125 5.257812 -10.765625 4.8125 -10.734375 C 4.375 -10.703125 3.9375 -10.640625 3.5 -10.546875 L 3.5 -0.453125 C 3.5 -0.347656 3.460938 -0.242188 3.390625 -0.140625 C 3.316406 -0.046875 3.21875 0 3.09375 0 L 1.9375 0 C 1.832031 0 1.738281 -0.0390625 1.65625 -0.125 C 1.570312 -0.21875 1.53125 -0.328125 1.53125 -0.453125 L 1.53125 -11.359375 C 1.53125 -11.585938 1.664062 -11.757812 1.9375 -11.875 C 2.570312 -12.15625 3.28125 -12.328125 4.0625 -12.390625 C 4.84375 -12.460938 5.695312 -12.5 6.625 -12.5 C 6.769531 -12.5 6.882812 -12.484375 6.96875 -12.453125 C 7.050781 -12.429688 7.09375 -12.335938 7.09375 -12.171875 Z M 7.09375 -11.140625 "/></g></g></g><g fill="#ff00ff" fill-opacity="1"><g transform="translate(98.1431, 54.068018)"><g><path d="M 11.03125 -5.390625 C 11.03125 -3.710938 10.632812 -2.367188 9.84375 -1.359375 C 9.0625 -0.347656 7.820312 0.15625 6.125 0.15625 C 5.457031 0.15625 4.773438 0.125 4.078125 0.0625 C 3.390625 0.0078125 2.695312 -0.0820312 2 -0.21875 C 1.800781 -0.25 1.671875 -0.304688 1.609375 -0.390625 C 1.554688 -0.472656 1.53125 -0.585938 1.53125 -0.734375 L 1.53125 -16.453125 C 1.53125 -16.578125 1.566406 -16.679688 1.640625 -16.765625 C 1.710938 -16.847656 1.8125 -16.890625 1.9375 -16.890625 L 3.078125 -16.890625 C 3.191406 -16.890625 3.289062 -16.847656 3.375 -16.765625 C 3.457031 -16.679688 3.5 -16.578125 3.5 -16.453125 L 3.5 -12.28125 C 3.9375 -12.351562 4.394531 -12.40625 4.875 -12.4375 C 5.351562 -12.476562 5.769531 -12.5 6.125 -12.5 C 7.757812 -12.5 8.984375 -12.023438 9.796875 -11.078125 C 10.617188 -10.128906 11.03125 -8.769531 11.03125 -7 Z M 9.046875 -5.390625 L 9.046875 -7 C 9.046875 -8.195312 8.835938 -9.125 8.421875 -9.78125 C 8.003906 -10.445312 7.238281 -10.78125 6.125 -10.78125 C 5.78125 -10.78125 5.347656 -10.769531 4.828125 -10.75 C 4.316406 -10.738281 3.875 -10.695312 3.5 -10.625 L 3.5 -1.703125 C 3.894531 -1.671875 4.335938 -1.640625 4.828125 -1.609375 C 5.316406 -1.585938 5.75 -1.578125 6.125 -1.578125 C 7.238281 -1.578125 8.003906 -1.90625 8.421875 -2.5625 C 8.835938 -3.21875 9.046875 -4.160156 9.046875 -5.390625 Z M 9.046875 -5.390625 "/></g></g></g><g fill="#ff00ff" fill-opacity="1"><g transform="translate(107.614643, 54.068018)"><g><path d="M 10.625 -0.875 C 10.625 -0.726562 10.597656 -0.613281 10.546875 -0.53125 C 10.492188 -0.457031 10.363281 -0.398438 10.15625 -0.359375 C 9.550781 -0.210938 8.878906 -0.09375 8.140625 0 C 7.410156 0.101562 6.703125 0.15625 6.015625 0.15625 C 4.335938 0.15625 3.101562 -0.347656 2.3125 -1.359375 C 1.519531 -2.367188 1.125 -3.710938 1.125 -5.390625 L 1.125 -6.953125 C 1.125 -8.648438 1.519531 -10 2.3125 -11 C 3.101562 -12 4.335938 -12.5 6.015625 -12.5 C 6.691406 -12.5 7.398438 -12.453125 8.140625 -12.359375 C 8.878906 -12.265625 9.550781 -12.140625 10.15625 -11.984375 C 10.363281 -11.941406 10.492188 -11.882812 10.546875 -11.8125 C 10.597656 -11.75 10.625 -11.632812 10.625 -11.46875 Z M 8.640625 -1.734375 L 8.640625 -10.625 C 8.347656 -10.675781 7.957031 -10.722656 7.46875 -10.765625 C 6.976562 -10.816406 6.492188 -10.84375 6.015625 -10.84375 C 4.910156 -10.84375 4.144531 -10.492188 3.71875 -9.796875 C 3.300781 -9.097656 3.09375 -8.148438 3.09375 -6.953125 L 3.09375 -5.390625 C 3.09375 -4.203125 3.300781 -3.253906 3.71875 -2.546875 C 4.144531 -1.847656 4.910156 -1.5 6.015625 -1.5 C 6.492188 -1.5 6.972656 -1.519531 7.453125 -1.5625 C 7.929688 -1.613281 8.328125 -1.671875 8.640625 -1.734375 Z M 8.640625 -1.734375 "/></g></g></g><g fill="#00ffff" fill-opacity="1"><g transform="translate(30.239985, 54.068018)"><g><path d="M 4.015625 -0.453125 C 4.015625 -0.347656 3.976562 -0.242188 3.90625 -0.140625 C 3.832031 -0.046875 3.734375 0 3.609375 0 L 2.375 0 C 2.269531 0 2.175781 -0.0390625 2.09375 -0.125 C 2.007812 -0.21875 1.96875 -0.328125 1.96875 -0.453125 L 1.96875 -16.25 C 1.96875 -16.375 2.003906 -16.476562 2.078125 -16.5625 C 2.160156 -16.644531 2.257812 -16.6875 2.375 -16.6875 L 3.609375 -16.6875 C 3.878906 -16.6875 4.015625 -16.539062 4.015625 -16.25 Z M 4.015625 -0.453125 "/></g></g></g><g fill="#00ffff" fill-opacity="1"><g transform="translate(33.561125, 54.068018)"><g><path d="M 9.34375 -3.09375 C 9.34375 -1.957031 8.957031 -1.128906 8.1875 -0.609375 C 7.414062 -0.0976562 6.398438 0.15625 5.140625 0.15625 C 4.867188 0.15625 4.523438 0.144531 4.109375 0.125 C 3.691406 0.101562 3.257812 0.0664062 2.8125 0.015625 C 2.375 -0.0234375 1.96875 -0.0859375 1.59375 -0.171875 C 1.28125 -0.253906 1.125 -0.40625 1.125 -0.625 L 1.125 -1.421875 C 1.125 -1.640625 1.257812 -1.75 1.53125 -1.75 C 1.5625 -1.75 1.578125 -1.75 1.578125 -1.75 C 1.585938 -1.75 1.597656 -1.75 1.609375 -1.75 C 1.972656 -1.707031 2.378906 -1.664062 2.828125 -1.625 C 3.273438 -1.59375 3.703125 -1.5625 4.109375 -1.53125 C 4.523438 -1.507812 4.867188 -1.5 5.140625 -1.5 C 5.867188 -1.5 6.421875 -1.613281 6.796875 -1.84375 C 7.171875 -2.082031 7.359375 -2.5 7.359375 -3.09375 C 7.359375 -3.4375 7.238281 -3.738281 7 -4 C 6.757812 -4.269531 6.320312 -4.59375 5.6875 -4.96875 L 3.40625 -6.3125 C 2.71875 -6.726562 2.164062 -7.191406 1.75 -7.703125 C 1.332031 -8.210938 1.125 -8.816406 1.125 -9.515625 C 1.125 -10.296875 1.300781 -10.898438 1.65625 -11.328125 C 2.019531 -11.765625 2.507812 -12.066406 3.125 -12.234375 C 3.738281 -12.410156 4.425781 -12.5 5.1875 -12.5 C 5.8125 -12.5 6.421875 -12.472656 7.015625 -12.421875 C 7.609375 -12.367188 8.164062 -12.300781 8.6875 -12.21875 C 8.96875 -12.164062 9.109375 -12.015625 9.109375 -11.765625 L 9.109375 -11.03125 C 9.109375 -10.769531 8.984375 -10.640625 8.734375 -10.640625 C 8.722656 -10.640625 8.710938 -10.640625 8.703125 -10.640625 C 8.691406 -10.640625 8.679688 -10.640625 8.671875 -10.640625 C 8.273438 -10.671875 7.75 -10.707031 7.09375 -10.75 C 6.445312 -10.800781 5.8125 -10.828125 5.1875 -10.828125 C 4.5625 -10.828125 4.054688 -10.75 3.671875 -10.59375 C 3.285156 -10.445312 3.09375 -10.085938 3.09375 -9.515625 C 3.09375 -9.191406 3.222656 -8.898438 3.484375 -8.640625 C 3.753906 -8.390625 4.140625 -8.113281 4.640625 -7.8125 L 6.875 -6.484375 C 7.800781 -5.929688 8.441406 -5.394531 8.796875 -4.875 C 9.160156 -4.351562 9.34375 -3.757812 9.34375 -3.09375 Z M 9.34375 -3.09375 "/></g></g></g><g fill="#00ffff" fill-opacity="1"><g transform="translate(41.349163, 54.068018)"><g><path d="M 7.09375 -11.140625 C 7.09375 -11.015625 7.066406 -10.921875 7.015625 -10.859375 C 6.960938 -10.804688 6.832031 -10.78125 6.625 -10.78125 C 5.863281 -10.78125 5.257812 -10.765625 4.8125 -10.734375 C 4.375 -10.703125 3.9375 -10.640625 3.5 -10.546875 L 3.5 -0.453125 C 3.5 -0.347656 3.460938 -0.242188 3.390625 -0.140625 C 3.316406 -0.046875 3.21875 0 3.09375 0 L 1.9375 0 C 1.832031 0 1.738281 -0.0390625 1.65625 -0.125 C 1.570312 -0.21875 1.53125 -0.328125 1.53125 -0.453125 L 1.53125 -11.359375 C 1.53125 -11.585938 1.664062 -11.757812 1.9375 -11.875 C 2.570312 -12.15625 3.28125 -12.328125 4.0625 -12.390625 C 4.84375 -12.460938 5.695312 -12.5 6.625 -12.5 C 6.769531 -12.5 6.882812 -12.484375 6.96875 -12.453125 C 7.050781 -12.429688 7.09375 -12.335938 7.09375 -12.171875 Z M 7.09375 -11.140625 "/></g></g></g><g fill="#00ffff" fill-opacity="1"><g transform="translate(46.623165, 54.068018)"><g><path d="M 10.625 -0.875 C 10.625 -0.726562 10.597656 -0.613281 10.546875 -0.53125 C 10.492188 -0.457031 10.363281 -0.398438 10.15625 -0.359375 C 9.550781 -0.210938 8.878906 -0.09375 8.140625 0 C 7.410156 0.101562 6.703125 0.15625 6.015625 0.15625 C 4.335938 0.15625 3.101562 -0.347656 2.3125 -1.359375 C 1.519531 -2.367188 1.125 -3.710938 1.125 -5.390625 L 1.125 -6.953125 C 1.125 -8.648438 1.519531 -10 2.3125 -11 C 3.101562 -12 4.335938 -12.5 6.015625 -12.5 C 6.691406 -12.5 7.398438 -12.453125 8.140625 -12.359375 C 8.878906 -12.265625 9.550781 -12.140625 10.15625 -11.984375 C 10.363281 -11.941406 10.492188 -11.882812 10.546875 -11.8125 C 10.597656 -11.75 10.625 -11.632812 10.625 -11.46875 Z M 8.640625 -1.734375 L 8.640625 -10.625 C 8.347656 -10.675781 7.957031 -10.722656 7.46875 -10.765625 C 6.976562 -10.816406 6.492188 -10.84375 6.015625 -10.84375 C 4.910156 -10.84375 4.144531 -10.492188 3.71875 -9.796875 C 3.300781 -9.097656 3.09375 -8.148438 3.09375 -6.953125 L 3.09375 -5.390625 C 3.09375 -4.203125 3.300781 -3.253906 3.71875 -2.546875 C 4.144531 -1.847656 4.910156 -1.5 6.015625 -1.5 C 6.492188 -1.5 6.972656 -1.519531 7.453125 -1.5625 C 7.929688 -1.613281 8.328125 -1.671875 8.640625 -1.734375 Z M 8.640625 -1.734375 "/></g></g></g><g fill="#00ffff" fill-opacity="1"><g transform="translate(56.094708, 54.068018)"><g><path d="M 11.046875 -6.046875 C 11.046875 -5.710938 10.90625 -5.546875 10.625 -5.546875 L 3.09375 -5.546875 L 3.09375 -5.234375 C 3.09375 -3.898438 3.351562 -2.957031 3.875 -2.40625 C 4.40625 -1.851562 5.1875 -1.578125 6.21875 -1.578125 C 6.875 -1.578125 7.578125 -1.597656 8.328125 -1.640625 C 9.078125 -1.679688 9.707031 -1.738281 10.21875 -1.8125 C 10.25 -1.8125 10.269531 -1.8125 10.28125 -1.8125 C 10.300781 -1.8125 10.316406 -1.8125 10.328125 -1.8125 C 10.421875 -1.8125 10.503906 -1.789062 10.578125 -1.75 C 10.648438 -1.707031 10.6875 -1.625 10.6875 -1.5 L 10.6875 -0.734375 C 10.6875 -0.585938 10.65625 -0.472656 10.59375 -0.390625 C 10.539062 -0.304688 10.421875 -0.25 10.234375 -0.21875 C 9.585938 -0.101562 8.941406 -0.015625 8.296875 0.046875 C 7.660156 0.117188 6.96875 0.15625 6.21875 0.15625 C 5.570312 0.15625 4.945312 0.0703125 4.34375 -0.09375 C 3.738281 -0.269531 3.191406 -0.5625 2.703125 -0.96875 C 2.210938 -1.375 1.828125 -1.921875 1.546875 -2.609375 C 1.265625 -3.304688 1.125 -4.179688 1.125 -5.234375 L 1.125 -7.25 C 1.125 -8.851562 1.550781 -10.128906 2.40625 -11.078125 C 3.269531 -12.023438 4.503906 -12.5 6.109375 -12.5 C 7.753906 -12.5 8.988281 -12.023438 9.8125 -11.078125 C 10.632812 -10.128906 11.046875 -8.851562 11.046875 -7.25 Z M 9.046875 -7.046875 L 9.046875 -7.25 C 9.046875 -8.519531 8.800781 -9.425781 8.3125 -9.96875 C 7.832031 -10.507812 7.097656 -10.78125 6.109375 -10.78125 C 5.148438 -10.78125 4.40625 -10.492188 3.875 -9.921875 C 3.351562 -9.359375 3.09375 -8.46875 3.09375 -7.25 L 3.09375 -7.046875 Z M 9.046875 -7.046875 "/></g></g></g><g fill="#00ffff" fill-opacity="1"><g transform="translate(65.63359, 54.068018)"><g><path d="M 3.734375 -0.453125 C 3.734375 -0.347656 3.691406 -0.242188 3.609375 -0.140625 C 3.535156 -0.046875 3.441406 0 3.328125 0 L 2.15625 0 C 2.050781 0 1.957031 -0.0390625 1.875 -0.125 C 1.789062 -0.21875 1.75 -0.328125 1.75 -0.453125 L 1.75 -16.453125 C 1.75 -16.578125 1.785156 -16.679688 1.859375 -16.765625 C 1.929688 -16.847656 2.03125 -16.890625 2.15625 -16.890625 L 3.328125 -16.890625 C 3.597656 -16.890625 3.734375 -16.742188 3.734375 -16.453125 Z M 3.734375 -0.453125 "/></g></g></g><g fill="#00ffff" fill-opacity="1"><g transform="translate(68.438453, 54.068018)"><g/></g></g><g fill="#00ffff" fill-opacity="1"><g transform="translate(71.31066, 54.068018)"><g><path d="M 12.703125 -4.609375 C 12.703125 -3.660156 12.523438 -2.878906 12.171875 -2.265625 C 11.828125 -1.648438 11.347656 -1.160156 10.734375 -0.796875 C 10.128906 -0.441406 9.4375 -0.191406 8.65625 -0.046875 C 7.875 0.0859375 7.039062 0.15625 6.15625 0.15625 C 5.414062 0.15625 4.726562 0.132812 4.09375 0.09375 C 3.457031 0.0625 2.925781 0.015625 2.5 -0.046875 C 2.238281 -0.078125 2.046875 -0.148438 1.921875 -0.265625 C 1.804688 -0.390625 1.75 -0.59375 1.75 -0.875 L 1.75 -15.828125 C 1.75 -16.335938 1.988281 -16.613281 2.46875 -16.65625 C 2.84375 -16.707031 3.347656 -16.75 3.984375 -16.78125 C 4.617188 -16.820312 5.304688 -16.84375 6.046875 -16.84375 C 7.242188 -16.84375 8.335938 -16.710938 9.328125 -16.453125 C 10.328125 -16.203125 11.125 -15.765625 11.71875 -15.140625 C 12.320312 -14.523438 12.625 -13.644531 12.625 -12.5 L 12.625 -12.140625 C 12.625 -11.316406 12.410156 -10.597656 11.984375 -9.984375 C 11.566406 -9.378906 10.976562 -8.925781 10.21875 -8.625 C 11 -8.351562 11.609375 -7.894531 12.046875 -7.25 C 12.484375 -6.601562 12.703125 -5.847656 12.703125 -4.984375 Z M 10.578125 -12.140625 L 10.578125 -12.5 C 10.578125 -13.21875 10.390625 -13.765625 10.015625 -14.140625 C 9.640625 -14.515625 9.109375 -14.769531 8.421875 -14.90625 C 7.742188 -15.039062 6.953125 -15.109375 6.046875 -15.109375 C 5.671875 -15.109375 5.28125 -15.097656 4.875 -15.078125 C 4.476562 -15.066406 4.125 -15.054688 3.8125 -15.046875 L 3.8125 -9.46875 L 7.28125 -9.46875 C 8.144531 -9.46875 8.816406 -9.59375 9.296875 -9.84375 C 9.773438 -10.09375 10.109375 -10.421875 10.296875 -10.828125 C 10.484375 -11.242188 10.578125 -11.679688 10.578125 -12.140625 Z M 10.671875 -4.609375 L 10.671875 -4.984375 C 10.671875 -5.472656 10.570312 -5.9375 10.375 -6.375 C 10.175781 -6.8125 9.828125 -7.164062 9.328125 -7.4375 C 8.835938 -7.707031 8.15625 -7.84375 7.28125 -7.84375 L 3.8125 -7.84375 L 3.8125 -1.65625 C 4.1875 -1.644531 4.570312 -1.628906 4.96875 -1.609375 C 5.363281 -1.585938 5.757812 -1.578125 6.15625 -1.578125 C 7.082031 -1.578125 7.878906 -1.660156 8.546875 -1.828125 C 9.222656 -2.003906 9.742188 -2.304688 10.109375 -2.734375 C 10.484375 -3.171875 10.671875 -3.796875 10.671875 -4.609375 Z M 10.671875 -4.609375 "/></g></g></g><g fill="#00ffff" fill-opacity="1"><g transform="translate(82.465708, 54.068018)"><g><path d="M 11.109375 -5.328125 C 11.109375 -3.671875 10.6875 -2.34375 9.84375 -1.34375 C 9 -0.34375 7.753906 0.15625 6.109375 0.15625 C 4.460938 0.15625 3.21875 -0.34375 2.375 -1.34375 C 1.539062 -2.34375 1.125 -3.671875 1.125 -5.328125 L 1.125 -7.03125 C 1.125 -8.675781 1.539062 -10 2.375 -11 C 3.21875 -12 4.460938 -12.5 6.109375 -12.5 C 7.753906 -12.5 9 -12 9.84375 -11 C 10.6875 -10 11.109375 -8.675781 11.109375 -7.03125 Z M 9.140625 -5.328125 L 9.140625 -7.03125 C 9.140625 -8.175781 8.898438 -9.085938 8.421875 -9.765625 C 7.941406 -10.441406 7.171875 -10.78125 6.109375 -10.78125 C 5.054688 -10.78125 4.289062 -10.441406 3.8125 -9.765625 C 3.332031 -9.085938 3.09375 -8.175781 3.09375 -7.03125 L 3.09375 -5.328125 C 3.09375 -4.179688 3.332031 -3.269531 3.8125 -2.59375 C 4.289062 -1.914062 5.054688 -1.578125 6.109375 -1.578125 C 7.148438 -1.578125 7.914062 -1.910156 8.40625 -2.578125 C 8.894531 -3.253906 9.140625 -4.171875 9.140625 -5.328125 Z M 9.140625 -5.328125 "/></g></g></g><g fill="#00ffff" fill-opacity="1"><g transform="translate(92.027038, 54.068018)"><g><path d="M 7.09375 -11.140625 C 7.09375 -11.015625 7.066406 -10.921875 7.015625 -10.859375 C 6.960938 -10.804688 6.832031 -10.78125 6.625 -10.78125 C 5.863281 -10.78125 5.257812 -10.765625 4.8125 -10.734375 C 4.375 -10.703125 3.9375 -10.640625 3.5 -10.546875 L 3.5 -0.453125 C 3.5 -0.347656 3.460938 -0.242188 3.390625 -0.140625 C 3.316406 -0.046875 3.21875 0 3.09375 0 L 1.9375 0 C 1.832031 0 1.738281 -0.0390625 1.65625 -0.125 C 1.570312 -0.21875 1.53125 -0.328125 1.53125 -0.453125 L 1.53125 -11.359375 C 1.53125 -11.585938 1.664062 -11.757812 1.9375 -11.875 C 2.570312 -12.15625 3.28125 -12.328125 4.0625 -12.390625 C 4.84375 -12.460938 5.695312 -12.5 6.625 -12.5 C 6.769531 -12.5 6.882812 -12.484375 6.96875 -12.453125 C 7.050781 -12.429688 7.09375 -12.335938 7.09375 -12.171875 Z M 7.09375 -11.140625 "/></g></g></g><g fill="#00ffff" fill-opacity="1"><g transform="translate(97.30104, 54.068018)"><g><path d="M 11.03125 -5.390625 C 11.03125 -3.710938 10.632812 -2.367188 9.84375 -1.359375 C 9.0625 -0.347656 7.820312 0.15625 6.125 0.15625 C 5.457031 0.15625 4.773438 0.125 4.078125 0.0625 C 3.390625 0.0078125 2.695312 -0.0820312 2 -0.21875 C 1.800781 -0.25 1.671875 -0.304688 1.609375 -0.390625 C 1.554688 -0.472656 1.53125 -0.585938 1.53125 -0.734375 L 1.53125 -16.453125 C 1.53125 -16.578125 1.566406 -16.679688 1.640625 -16.765625 C 1.710938 -16.847656 1.8125 -16.890625 1.9375 -16.890625 L 3.078125 -16.890625 C 3.191406 -16.890625 3.289062 -16.847656 3.375 -16.765625 C 3.457031 -16.679688 3.5 -16.578125 3.5 -16.453125 L 3.5 -12.28125 C 3.9375 -12.351562 4.394531 -12.40625 4.875 -12.4375 C 5.351562 -12.476562 5.769531 -12.5 6.125 -12.5 C 7.757812 -12.5 8.984375 -12.023438 9.796875 -11.078125 C 10.617188 -10.128906 11.03125 -8.769531 11.03125 -7 Z M 9.046875 -5.390625 L 9.046875 -7 C 9.046875 -8.195312 8.835938 -9.125 8.421875 -9.78125 C 8.003906 -10.445312 7.238281 -10.78125 6.125 -10.78125 C 5.78125 -10.78125 5.347656 -10.769531 4.828125 -10.75 C 4.316406 -10.738281 3.875 -10.695312 3.5 -10.625 L 3.5 -1.703125 C 3.894531 -1.671875 4.335938 -1.640625 4.828125 -1.609375 C 5.316406 -1.585938 5.75 -1.578125 6.125 -1.578125 C 7.238281 -1.578125 8.003906 -1.90625 8.421875 -2.5625 C 8.835938 -3.21875 9.046875 -4.160156 9.046875 -5.390625 Z M 9.046875 -5.390625 "/></g></g></g><g fill="#00ffff" fill-opacity="1"><g transform="translate(106.772583, 54.068018)"><g><path d="M 10.625 -0.875 C 10.625 -0.726562 10.597656 -0.613281 10.546875 -0.53125 C 10.492188 -0.457031 10.363281 -0.398438 10.15625 -0.359375 C 9.550781 -0.210938 8.878906 -0.09375 8.140625 0 C 7.410156 0.101562 6.703125 0.15625 6.015625 0.15625 C 4.335938 0.15625 3.101562 -0.347656 2.3125 -1.359375 C 1.519531 -2.367188 1.125 -3.710938 1.125 -5.390625 L 1.125 -6.953125 C 1.125 -8.648438 1.519531 -10 2.3125 -11 C 3.101562 -12 4.335938 -12.5 6.015625 -12.5 C 6.691406 -12.5 7.398438 -12.453125 8.140625 -12.359375 C 8.878906 -12.265625 9.550781 -12.140625 10.15625 -11.984375 C 10.363281 -11.941406 10.492188 -11.882812 10.546875 -11.8125 C 10.597656 -11.75 10.625 -11.632812 10.625 -11.46875 Z M 8.640625 -1.734375 L 8.640625 -10.625 C 8.347656 -10.675781 7.957031 -10.722656 7.46875 -10.765625 C 6.976562 -10.816406 6.492188 -10.84375 6.015625 -10.84375 C 4.910156 -10.84375 4.144531 -10.492188 3.71875 -9.796875 C 3.300781 -9.097656 3.09375 -8.148438 3.09375 -6.953125 L 3.09375 -5.390625 C 3.09375 -4.203125 3.300781 -3.253906 3.71875 -2.546875 C 4.144531 -1.847656 4.910156 -1.5 6.015625 -1.5 C 6.492188 -1.5 6.972656 -1.519531 7.453125 -1.5625 C 7.929688 -1.613281 8.328125 -1.671875 8.640625 -1.734375 Z M 8.640625 -1.734375 "/></g></g></g><g fill="#004aad" fill-opacity="1"><g transform="translate(30.661015, 54.068018)"><g><path d="M 4.015625 -0.453125 C 4.015625 -0.347656 3.976562 -0.242188 3.90625 -0.140625 C 3.832031 -0.046875 3.734375 0 3.609375 0 L 2.375 0 C 2.269531 0 2.175781 -0.0390625 2.09375 -0.125 C 2.007812 -0.21875 1.96875 -0.328125 1.96875 -0.453125 L 1.96875 -16.25 C 1.96875 -16.375 2.003906 -16.476562 2.078125 -16.5625 C 2.160156 -16.644531 2.257812 -16.6875 2.375 -16.6875 L 3.609375 -16.6875 C 3.878906 -16.6875 4.015625 -16.539062 4.015625 -16.25 Z M 4.015625 -0.453125 "/></g></g></g><g fill="#004aad" fill-opacity="1"><g transform="translate(33.982155, 54.068018)"><g><path d="M 9.34375 -3.09375 C 9.34375 -1.957031 8.957031 -1.128906 8.1875 -0.609375 C 7.414062 -0.0976562 6.398438 0.15625 5.140625 0.15625 C 4.867188 0.15625 4.523438 0.144531 4.109375 0.125 C 3.691406 0.101562 3.257812 0.0664062 2.8125 0.015625 C 2.375 -0.0234375 1.96875 -0.0859375 1.59375 -0.171875 C 1.28125 -0.253906 1.125 -0.40625 1.125 -0.625 L 1.125 -1.421875 C 1.125 -1.640625 1.257812 -1.75 1.53125 -1.75 C 1.5625 -1.75 1.578125 -1.75 1.578125 -1.75 C 1.585938 -1.75 1.597656 -1.75 1.609375 -1.75 C 1.972656 -1.707031 2.378906 -1.664062 2.828125 -1.625 C 3.273438 -1.59375 3.703125 -1.5625 4.109375 -1.53125 C 4.523438 -1.507812 4.867188 -1.5 5.140625 -1.5 C 5.867188 -1.5 6.421875 -1.613281 6.796875 -1.84375 C 7.171875 -2.082031 7.359375 -2.5 7.359375 -3.09375 C 7.359375 -3.4375 7.238281 -3.738281 7 -4 C 6.757812 -4.269531 6.320312 -4.59375 5.6875 -4.96875 L 3.40625 -6.3125 C 2.71875 -6.726562 2.164062 -7.191406 1.75 -7.703125 C 1.332031 -8.210938 1.125 -8.816406 1.125 -9.515625 C 1.125 -10.296875 1.300781 -10.898438 1.65625 -11.328125 C 2.019531 -11.765625 2.507812 -12.066406 3.125 -12.234375 C 3.738281 -12.410156 4.425781 -12.5 5.1875 -12.5 C 5.8125 -12.5 6.421875 -12.472656 7.015625 -12.421875 C 7.609375 -12.367188 8.164062 -12.300781 8.6875 -12.21875 C 8.96875 -12.164062 9.109375 -12.015625 9.109375 -11.765625 L 9.109375 -11.03125 C 9.109375 -10.769531 8.984375 -10.640625 8.734375 -10.640625 C 8.722656 -10.640625 8.710938 -10.640625 8.703125 -10.640625 C 8.691406 -10.640625 8.679688 -10.640625 8.671875 -10.640625 C 8.273438 -10.671875 7.75 -10.707031 7.09375 -10.75 C 6.445312 -10.800781 5.8125 -10.828125 5.1875 -10.828125 C 4.5625 -10.828125 4.054688 -10.75 3.671875 -10.59375 C 3.285156 -10.445312 3.09375 -10.085938 3.09375 -9.515625 C 3.09375 -9.191406 3.222656 -8.898438 3.484375 -8.640625 C 3.753906 -8.390625 4.140625 -8.113281 4.640625 -7.8125 L 6.875 -6.484375 C 7.800781 -5.929688 8.441406 -5.394531 8.796875 -4.875 C 9.160156 -4.351562 9.34375 -3.757812 9.34375 -3.09375 Z M 9.34375 -3.09375 "/></g></g></g><g fill="#004aad" fill-opacity="1"><g transform="translate(41.770193, 54.068018)"><g><path d="M 7.09375 -11.140625 C 7.09375 -11.015625 7.066406 -10.921875 7.015625 -10.859375 C 6.960938 -10.804688 6.832031 -10.78125 6.625 -10.78125 C 5.863281 -10.78125 5.257812 -10.765625 4.8125 -10.734375 C 4.375 -10.703125 3.9375 -10.640625 3.5 -10.546875 L 3.5 -0.453125 C 3.5 -0.347656 3.460938 -0.242188 3.390625 -0.140625 C 3.316406 -0.046875 3.21875 0 3.09375 0 L 1.9375 0 C 1.832031 0 1.738281 -0.0390625 1.65625 -0.125 C 1.570312 -0.21875 1.53125 -0.328125 1.53125 -0.453125 L 1.53125 -11.359375 C 1.53125 -11.585938 1.664062 -11.757812 1.9375 -11.875 C 2.570312 -12.15625 3.28125 -12.328125 4.0625 -12.390625 C 4.84375 -12.460938 5.695312 -12.5 6.625 -12.5 C 6.769531 -12.5 6.882812 -12.484375 6.96875 -12.453125 C 7.050781 -12.429688 7.09375 -12.335938 7.09375 -12.171875 Z M 7.09375 -11.140625 "/></g></g></g><g fill="#004aad" fill-opacity="1"><g transform="translate(47.044195, 54.068018)"><g><path d="M 10.625 -0.875 C 10.625 -0.726562 10.597656 -0.613281 10.546875 -0.53125 C 10.492188 -0.457031 10.363281 -0.398438 10.15625 -0.359375 C 9.550781 -0.210938 8.878906 -0.09375 8.140625 0 C 7.410156 0.101562 6.703125 0.15625 6.015625 0.15625 C 4.335938 0.15625 3.101562 -0.347656 2.3125 -1.359375 C 1.519531 -2.367188 1.125 -3.710938 1.125 -5.390625 L 1.125 -6.953125 C 1.125 -8.648438 1.519531 -10 2.3125 -11 C 3.101562 -12 4.335938 -12.5 6.015625 -12.5 C 6.691406 -12.5 7.398438 -12.453125 8.140625 -12.359375 C 8.878906 -12.265625 9.550781 -12.140625 10.15625 -11.984375 C 10.363281 -11.941406 10.492188 -11.882812 10.546875 -11.8125 C 10.597656 -11.75 10.625 -11.632812 10.625 -11.46875 Z M 8.640625 -1.734375 L 8.640625 -10.625 C 8.347656 -10.675781 7.957031 -10.722656 7.46875 -10.765625 C 6.976562 -10.816406 6.492188 -10.84375 6.015625 -10.84375 C 4.910156 -10.84375 4.144531 -10.492188 3.71875 -9.796875 C 3.300781 -9.097656 3.09375 -8.148438 3.09375 -6.953125 L 3.09375 -5.390625 C 3.09375 -4.203125 3.300781 -3.253906 3.71875 -2.546875 C 4.144531 -1.847656 4.910156 -1.5 6.015625 -1.5 C 6.492188 -1.5 6.972656 -1.519531 7.453125 -1.5625 C 7.929688 -1.613281 8.328125 -1.671875 8.640625 -1.734375 Z M 8.640625 -1.734375 "/></g></g></g><g fill="#004aad" fill-opacity="1"><g transform="translate(56.515738, 54.068018)"><g><path d="M 11.046875 -6.046875 C 11.046875 -5.710938 10.90625 -5.546875 10.625 -5.546875 L 3.09375 -5.546875 L 3.09375 -5.234375 C 3.09375 -3.898438 3.351562 -2.957031 3.875 -2.40625 C 4.40625 -1.851562 5.1875 -1.578125 6.21875 -1.578125 C 6.875 -1.578125 7.578125 -1.597656 8.328125 -1.640625 C 9.078125 -1.679688 9.707031 -1.738281 10.21875 -1.8125 C 10.25 -1.8125 10.269531 -1.8125 10.28125 -1.8125 C 10.300781 -1.8125 10.316406 -1.8125 10.328125 -1.8125 C 10.421875 -1.8125 10.503906 -1.789062 10.578125 -1.75 C 10.648438 -1.707031 10.6875 -1.625 10.6875 -1.5 L 10.6875 -0.734375 C 10.6875 -0.585938 10.65625 -0.472656 10.59375 -0.390625 C 10.539062 -0.304688 10.421875 -0.25 10.234375 -0.21875 C 9.585938 -0.101562 8.941406 -0.015625 8.296875 0.046875 C 7.660156 0.117188 6.96875 0.15625 6.21875 0.15625 C 5.570312 0.15625 4.945312 0.0703125 4.34375 -0.09375 C 3.738281 -0.269531 3.191406 -0.5625 2.703125 -0.96875 C 2.210938 -1.375 1.828125 -1.921875 1.546875 -2.609375 C 1.265625 -3.304688 1.125 -4.179688 1.125 -5.234375 L 1.125 -7.25 C 1.125 -8.851562 1.550781 -10.128906 2.40625 -11.078125 C 3.269531 -12.023438 4.503906 -12.5 6.109375 -12.5 C 7.753906 -12.5 8.988281 -12.023438 9.8125 -11.078125 C 10.632812 -10.128906 11.046875 -8.851562 11.046875 -7.25 Z M 9.046875 -7.046875 L 9.046875 -7.25 C 9.046875 -8.519531 8.800781 -9.425781 8.3125 -9.96875 C 7.832031 -10.507812 7.097656 -10.78125 6.109375 -10.78125 C 5.148438 -10.78125 4.40625 -10.492188 3.875 -9.921875 C 3.351562 -9.359375 3.09375 -8.46875 3.09375 -7.25 L 3.09375 -7.046875 Z M 9.046875 -7.046875 "/></g></g></g><g fill="#004aad" fill-opacity="1"><g transform="translate(66.05462, 54.068018)"><g><path d="M 3.734375 -0.453125 C 3.734375 -0.347656 3.691406 -0.242188 3.609375 -0.140625 C 3.535156 -0.046875 3.441406 0 3.328125 0 L 2.15625 0 C 2.050781 0 1.957031 -0.0390625 1.875 -0.125 C 1.789062 -0.21875 1.75 -0.328125 1.75 -0.453125 L 1.75 -16.453125 C 1.75 -16.578125 1.785156 -16.679688 1.859375 -16.765625 C 1.929688 -16.847656 2.03125 -16.890625 2.15625 -16.890625 L 3.328125 -16.890625 C 3.597656 -16.890625 3.734375 -16.742188 3.734375 -16.453125 Z M 3.734375 -0.453125 "/></g></g></g><g fill="#004aad" fill-opacity="1"><g transform="translate(68.859483, 54.068018)"><g/></g></g><g fill="#004aad" fill-opacity="1"><g transform="translate(71.73169, 54.068018)"><g><path d="M 12.703125 -4.609375 C 12.703125 -3.660156 12.523438 -2.878906 12.171875 -2.265625 C 11.828125 -1.648438 11.347656 -1.160156 10.734375 -0.796875 C 10.128906 -0.441406 9.4375 -0.191406 8.65625 -0.046875 C 7.875 0.0859375 7.039062 0.15625 6.15625 0.15625 C 5.414062 0.15625 4.726562 0.132812 4.09375 0.09375 C 3.457031 0.0625 2.925781 0.015625 2.5 -0.046875 C 2.238281 -0.078125 2.046875 -0.148438 1.921875 -0.265625 C 1.804688 -0.390625 1.75 -0.59375 1.75 -0.875 L 1.75 -15.828125 C 1.75 -16.335938 1.988281 -16.613281 2.46875 -16.65625 C 2.84375 -16.707031 3.347656 -16.75 3.984375 -16.78125 C 4.617188 -16.820312 5.304688 -16.84375 6.046875 -16.84375 C 7.242188 -16.84375 8.335938 -16.710938 9.328125 -16.453125 C 10.328125 -16.203125 11.125 -15.765625 11.71875 -15.140625 C 12.320312 -14.523438 12.625 -13.644531 12.625 -12.5 L 12.625 -12.140625 C 12.625 -11.316406 12.410156 -10.597656 11.984375 -9.984375 C 11.566406 -9.378906 10.976562 -8.925781 10.21875 -8.625 C 11 -8.351562 11.609375 -7.894531 12.046875 -7.25 C 12.484375 -6.601562 12.703125 -5.847656 12.703125 -4.984375 Z M 10.578125 -12.140625 L 10.578125 -12.5 C 10.578125 -13.21875 10.390625 -13.765625 10.015625 -14.140625 C 9.640625 -14.515625 9.109375 -14.769531 8.421875 -14.90625 C 7.742188 -15.039062 6.953125 -15.109375 6.046875 -15.109375 C 5.671875 -15.109375 5.28125 -15.097656 4.875 -15.078125 C 4.476562 -15.066406 4.125 -15.054688 3.8125 -15.046875 L 3.8125 -9.46875 L 7.28125 -9.46875 C 8.144531 -9.46875 8.816406 -9.59375 9.296875 -9.84375 C 9.773438 -10.09375 10.109375 -10.421875 10.296875 -10.828125 C 10.484375 -11.242188 10.578125 -11.679688 10.578125 -12.140625 Z M 10.671875 -4.609375 L 10.671875 -4.984375 C 10.671875 -5.472656 10.570312 -5.9375 10.375 -6.375 C 10.175781 -6.8125 9.828125 -7.164062 9.328125 -7.4375 C 8.835938 -7.707031 8.15625 -7.84375 7.28125 -7.84375 L 3.8125 -7.84375 L 3.8125 -1.65625 C 4.1875 -1.644531 4.570312 -1.628906 4.96875 -1.609375 C 5.363281 -1.585938 5.757812 -1.578125 6.15625 -1.578125 C 7.082031 -1.578125 7.878906 -1.660156 8.546875 -1.828125 C 9.222656 -2.003906 9.742188 -2.304688 10.109375 -2.734375 C 10.484375 -3.171875 10.671875 -3.796875 10.671875 -4.609375 Z M 10.671875 -4.609375 "/></g></g></g><g fill="#004aad" fill-opacity="1"><g transform="translate(82.886738, 54.068018)"><g><path d="M 11.109375 -5.328125 C 11.109375 -3.671875 10.6875 -2.34375 9.84375 -1.34375 C 9 -0.34375 7.753906 0.15625 6.109375 0.15625 C 4.460938 0.15625 3.21875 -0.34375 2.375 -1.34375 C 1.539062 -2.34375 1.125 -3.671875 1.125 -5.328125 L 1.125 -7.03125 C 1.125 -8.675781 1.539062 -10 2.375 -11 C 3.21875 -12 4.460938 -12.5 6.109375 -12.5 C 7.753906 -12.5 9 -12 9.84375 -11 C 10.6875 -10 11.109375 -8.675781 11.109375 -7.03125 Z M 9.140625 -5.328125 L 9.140625 -7.03125 C 9.140625 -8.175781 8.898438 -9.085938 8.421875 -9.765625 C 7.941406 -10.441406 7.171875 -10.78125 6.109375 -10.78125 C 5.054688 -10.78125 4.289062 -10.441406 3.8125 -9.765625 C 3.332031 -9.085938 3.09375 -8.175781 3.09375 -7.03125 L 3.09375 -5.328125 C 3.09375 -4.179688 3.332031 -3.269531 3.8125 -2.59375 C 4.289062 -1.914062 5.054688 -1.578125 6.109375 -1.578125 C 7.148438 -1.578125 7.914062 -1.910156 8.40625 -2.578125 C 8.894531 -3.253906 9.140625 -4.171875 9.140625 -5.328125 Z M 9.140625 -5.328125 "/></g></g></g><g fill="#004aad" fill-opacity="1"><g transform="translate(92.448068, 54.068018)"><g><path d="M 7.09375 -11.140625 C 7.09375 -11.015625 7.066406 -10.921875 7.015625 -10.859375 C 6.960938 -10.804688 6.832031 -10.78125 6.625 -10.78125 C 5.863281 -10.78125 5.257812 -10.765625 4.8125 -10.734375 C 4.375 -10.703125 3.9375 -10.640625 3.5 -10.546875 L 3.5 -0.453125 C 3.5 -0.347656 3.460938 -0.242188 3.390625 -0.140625 C 3.316406 -0.046875 3.21875 0 3.09375 0 L 1.9375 0 C 1.832031 0 1.738281 -0.0390625 1.65625 -0.125 C 1.570312 -0.21875 1.53125 -0.328125 1.53125 -0.453125 L 1.53125 -11.359375 C 1.53125 -11.585938 1.664062 -11.757812 1.9375 -11.875 C 2.570312 -12.15625 3.28125 -12.328125 4.0625 -12.390625 C 4.84375 -12.460938 5.695312 -12.5 6.625 -12.5 C 6.769531 -12.5 6.882812 -12.484375 6.96875 -12.453125 C 7.050781 -12.429688 7.09375 -12.335938 7.09375 -12.171875 Z M 7.09375 -11.140625 "/></g></g></g><g fill="#004aad" fill-opacity="1"><g transform="translate(97.72207, 54.068018)"><g><path d="M 11.03125 -5.390625 C 11.03125 -3.710938 10.632812 -2.367188 9.84375 -1.359375 C 9.0625 -0.347656 7.820312 0.15625 6.125 0.15625 C 5.457031 0.15625 4.773438 0.125 4.078125 0.0625 C 3.390625 0.0078125 2.695312 -0.0820312 2 -0.21875 C 1.800781 -0.25 1.671875 -0.304688 1.609375 -0.390625 C 1.554688 -0.472656 1.53125 -0.585938 1.53125 -0.734375 L 1.53125 -16.453125 C 1.53125 -16.578125 1.566406 -16.679688 1.640625 -16.765625 C 1.710938 -16.847656 1.8125 -16.890625 1.9375 -16.890625 L 3.078125 -16.890625 C 3.191406 -16.890625 3.289062 -16.847656 3.375 -16.765625 C 3.457031 -16.679688 3.5 -16.578125 3.5 -16.453125 L 3.5 -12.28125 C 3.9375 -12.351562 4.394531 -12.40625 4.875 -12.4375 C 5.351562 -12.476562 5.769531 -12.5 6.125 -12.5 C 7.757812 -12.5 8.984375 -12.023438 9.796875 -11.078125 C 10.617188 -10.128906 11.03125 -8.769531 11.03125 -7 Z M 9.046875 -5.390625 L 9.046875 -7 C 9.046875 -8.195312 8.835938 -9.125 8.421875 -9.78125 C 8.003906 -10.445312 7.238281 -10.78125 6.125 -10.78125 C 5.78125 -10.78125 5.347656 -10.769531 4.828125 -10.75 C 4.316406 -10.738281 3.875 -10.695312 3.5 -10.625 L 3.5 -1.703125 C 3.894531 -1.671875 4.335938 -1.640625 4.828125 -1.609375 C 5.316406 -1.585938 5.75 -1.578125 6.125 -1.578125 C 7.238281 -1.578125 8.003906 -1.90625 8.421875 -2.5625 C 8.835938 -3.21875 9.046875 -4.160156 9.046875 -5.390625 Z M 9.046875 -5.390625 "/></g></g></g><g fill="#004aad" fill-opacity="1"><g transform="translate(107.193613, 54.068018)"><g><path d="M 10.625 -0.875 C 10.625 -0.726562 10.597656 -0.613281 10.546875 -0.53125 C 10.492188 -0.457031 10.363281 -0.398438 10.15625 -0.359375 C 9.550781 -0.210938 8.878906 -0.09375 8.140625 0 C 7.410156 0.101562 6.703125 0.15625 6.015625 0.15625 C 4.335938 0.15625 3.101562 -0.347656 2.3125 -1.359375 C 1.519531 -2.367188 1.125 -3.710938 1.125 -5.390625 L 1.125 -6.953125 C 1.125 -8.648438 1.519531 -10 2.3125 -11 C 3.101562 -12 4.335938 -12.5 6.015625 -12.5 C 6.691406 -12.5 7.398438 -12.453125 8.140625 -12.359375 C 8.878906 -12.265625 9.550781 -12.140625 10.15625 -11.984375 C 10.363281 -11.941406 10.492188 -11.882812 10.546875 -11.8125 C 10.597656 -11.75 10.625 -11.632812 10.625 -11.46875 Z M 8.640625 -1.734375 L 8.640625 -10.625 C 8.347656 -10.675781 7.957031 -10.722656 7.46875 -10.765625 C 6.976562 -10.816406 6.492188 -10.84375 6.015625 -10.84375 C 4.910156 -10.84375 4.144531 -10.492188 3.71875 -9.796875 C 3.300781 -9.097656 3.09375 -8.148438 3.09375 -6.953125 L 3.09375 -5.390625 C 3.09375 -4.203125 3.300781 -3.253906 3.71875 -2.546875 C 4.144531 -1.847656 4.910156 -1.5 6.015625 -1.5 C 6.492188 -1.5 6.972656 -1.519531 7.453125 -1.5625 C 7.929688 -1.613281 8.328125 -1.671875 8.640625 -1.734375 Z M 8.640625 -1.734375 "/></g></g></g></svg>
