<svg xmlns="http://www.w3.org/2000/svg" xmlns:xlink="http://www.w3.org/1999/xlink" width="500" zoomAndPan="magnify" viewBox="0 0 375 374.999991" height="500" preserveAspectRatio="xMidYMid meet" version="1.0"><defs><g/><clipPath id="e0a0a16ea9"><path d="M 209 32 L 240.78125 32 L 240.78125 85 L 209 85 Z M 209 32 " clip-rule="nonzero"/></clipPath><clipPath id="aea571ddc0"><path d="M 134.28125 32 L 166 32 L 166 85 L 134.28125 85 Z M 134.28125 32 " clip-rule="nonzero"/></clipPath><clipPath id="8502a1f434"><path d="M 168 19.773438 L 204 19.773438 L 204 97.773438 L 168 97.773438 Z M 168 19.773438 " clip-rule="nonzero"/></clipPath></defs><g clip-path="url(#e0a0a16ea9)"><path fill="#3f51b5" d="M 217.386719 84.773438 L 209.597656 78.273438 L 227.25 58.773438 L 209.597656 39.273438 L 217.386719 32.773438 L 240.746094 58.773438 Z M 217.386719 84.773438 " fill-opacity="1" fill-rule="nonzero"/></g><g clip-path="url(#aea571ddc0)"><path fill="#3f51b5" d="M 157.679688 84.773438 L 134.316406 58.773438 L 157.679688 32.773438 L 165.46875 39.273438 L 147.558594 58.773438 L 165.46875 78.273438 Z M 157.679688 84.773438 " fill-opacity="1" fill-rule="nonzero"/></g><g clip-path="url(#8502a1f434)"><path fill="#2196f3" d="M 178.449219 97.773438 L 168.582031 94.390625 L 194.023438 19.773438 L 203.886719 23.152344 Z M 178.449219 97.773438 " fill-opacity="1" fill-rule="nonzero"/></g><g fill="#ff00ff" fill-opacity="1"><g transform="translate(88.79383, 140.585016)"><g><path d="M 8.984375 -1 C 8.984375 -0.769531 8.898438 -0.546875 8.734375 -0.328125 C 8.566406 -0.109375 8.347656 0 8.078125 0 L 5.3125 0 C 5.082031 0 4.875 -0.0976562 4.6875 -0.296875 C 4.507812 -0.503906 4.421875 -0.738281 4.421875 -1 L 4.421875 -36.328125 C 4.421875 -36.585938 4.503906 -36.8125 4.671875 -37 C 4.835938 -37.1875 5.050781 -37.28125 5.3125 -37.28125 L 8.078125 -37.28125 C 8.679688 -37.28125 8.984375 -36.960938 8.984375 -36.328125 Z M 8.984375 -1 "/></g></g></g><g fill="#ff00ff" fill-opacity="1"><g transform="translate(96.214774, 140.585016)"><g><path d="M 20.875 -6.921875 C 20.875 -4.378906 20.007812 -2.53125 18.28125 -1.375 C 16.5625 -0.226562 14.296875 0.34375 11.484375 0.34375 C 10.890625 0.34375 10.125 0.316406 9.1875 0.265625 C 8.25 0.222656 7.285156 0.148438 6.296875 0.046875 C 5.304688 -0.046875 4.394531 -0.195312 3.5625 -0.40625 C 2.863281 -0.570312 2.515625 -0.90625 2.515625 -1.40625 L 2.515625 -3.15625 C 2.515625 -3.65625 2.8125 -3.90625 3.40625 -3.90625 C 3.476562 -3.90625 3.519531 -3.90625 3.53125 -3.90625 C 3.550781 -3.90625 3.578125 -3.90625 3.609375 -3.90625 C 4.410156 -3.8125 5.3125 -3.722656 6.3125 -3.640625 C 7.320312 -3.554688 8.285156 -3.488281 9.203125 -3.4375 C 10.128906 -3.382812 10.890625 -3.359375 11.484375 -3.359375 C 13.128906 -3.359375 14.367188 -3.617188 15.203125 -4.140625 C 16.035156 -4.660156 16.453125 -5.585938 16.453125 -6.921875 C 16.453125 -7.691406 16.179688 -8.367188 15.640625 -8.953125 C 15.109375 -9.535156 14.125 -10.25 12.6875 -11.09375 L 7.625 -14.09375 C 6.082031 -15.03125 4.84375 -16.066406 3.90625 -17.203125 C 2.976562 -18.347656 2.515625 -19.703125 2.515625 -21.265625 C 2.515625 -23.003906 2.914062 -24.359375 3.71875 -25.328125 C 4.519531 -26.304688 5.601562 -26.988281 6.96875 -27.375 C 8.34375 -27.757812 9.882812 -27.953125 11.59375 -27.953125 C 13 -27.953125 14.359375 -27.890625 15.671875 -27.765625 C 16.992188 -27.648438 18.242188 -27.492188 19.421875 -27.296875 C 20.054688 -27.191406 20.375 -26.859375 20.375 -26.296875 L 20.375 -24.640625 C 20.375 -24.066406 20.085938 -23.78125 19.515625 -23.78125 C 19.484375 -23.78125 19.457031 -23.78125 19.4375 -23.78125 C 19.425781 -23.78125 19.398438 -23.78125 19.359375 -23.78125 C 18.492188 -23.84375 17.332031 -23.925781 15.875 -24.03125 C 14.425781 -24.132812 13 -24.1875 11.59375 -24.1875 C 10.1875 -24.1875 9.054688 -24.015625 8.203125 -23.671875 C 7.347656 -23.335938 6.921875 -22.535156 6.921875 -21.265625 C 6.921875 -20.535156 7.210938 -19.882812 7.796875 -19.3125 C 8.390625 -18.75 9.253906 -18.128906 10.390625 -17.453125 L 15.359375 -14.5 C 17.429688 -13.257812 18.867188 -12.050781 19.671875 -10.875 C 20.472656 -9.707031 20.875 -8.390625 20.875 -6.921875 Z M 20.875 -6.921875 "/></g></g></g><g fill="#ff00ff" fill-opacity="1"><g transform="translate(113.616807, 140.585016)"><g><path d="M 15.859375 -24.890625 C 15.859375 -24.617188 15.796875 -24.414062 15.671875 -24.28125 C 15.554688 -24.144531 15.265625 -24.078125 14.796875 -24.078125 C 13.085938 -24.078125 11.738281 -24.039062 10.75 -23.96875 C 9.769531 -23.90625 8.796875 -23.773438 7.828125 -23.578125 L 7.828125 -1 C 7.828125 -0.769531 7.742188 -0.546875 7.578125 -0.328125 C 7.410156 -0.109375 7.191406 0 6.921875 0 L 4.3125 0 C 4.082031 0 3.875 -0.0976562 3.6875 -0.296875 C 3.5 -0.503906 3.40625 -0.738281 3.40625 -1 L 3.40625 -25.390625 C 3.40625 -25.890625 3.707031 -26.273438 4.3125 -26.546875 C 5.75 -27.179688 7.335938 -27.570312 9.078125 -27.71875 C 10.816406 -27.875 12.722656 -27.953125 14.796875 -27.953125 C 15.128906 -27.953125 15.390625 -27.914062 15.578125 -27.84375 C 15.765625 -27.78125 15.859375 -27.5625 15.859375 -27.1875 Z M 15.859375 -24.890625 "/></g></g></g><g fill="#ff00ff" fill-opacity="1"><g transform="translate(125.401337, 140.585016)"><g><path d="M 23.734375 -1.953125 C 23.734375 -1.617188 23.671875 -1.367188 23.546875 -1.203125 C 23.429688 -1.035156 23.140625 -0.898438 22.671875 -0.796875 C 21.335938 -0.460938 19.847656 -0.191406 18.203125 0.015625 C 16.566406 0.234375 14.984375 0.34375 13.453125 0.34375 C 9.703125 0.34375 6.941406 -0.78125 5.171875 -3.03125 C 3.398438 -5.289062 2.515625 -8.296875 2.515625 -12.046875 L 2.515625 -15.546875 C 2.515625 -19.328125 3.398438 -22.335938 5.171875 -24.578125 C 6.941406 -26.828125 9.703125 -27.953125 13.453125 -27.953125 C 14.953125 -27.953125 16.53125 -27.84375 18.1875 -27.625 C 19.84375 -27.40625 21.335938 -27.128906 22.671875 -26.796875 C 23.140625 -26.691406 23.429688 -26.5625 23.546875 -26.40625 C 23.671875 -26.257812 23.734375 -26.003906 23.734375 -25.640625 Z M 19.3125 -3.859375 L 19.3125 -23.734375 C 18.644531 -23.867188 17.765625 -23.984375 16.671875 -24.078125 C 15.585938 -24.179688 14.515625 -24.234375 13.453125 -24.234375 C 10.972656 -24.234375 9.265625 -23.453125 8.328125 -21.890625 C 7.390625 -20.335938 6.921875 -18.222656 6.921875 -15.546875 L 6.921875 -12.046875 C 6.921875 -9.398438 7.390625 -7.289062 8.328125 -5.71875 C 9.265625 -4.144531 10.972656 -3.359375 13.453125 -3.359375 C 14.515625 -3.359375 15.582031 -3.40625 16.65625 -3.5 C 17.726562 -3.601562 18.613281 -3.722656 19.3125 -3.859375 Z M 19.3125 -3.859375 "/></g></g></g><g fill="#ff00ff" fill-opacity="1"><g transform="translate(146.565089, 140.585016)"><g><path d="M 24.6875 -13.5 C 24.6875 -12.757812 24.367188 -12.390625 23.734375 -12.390625 L 6.921875 -12.390625 L 6.921875 -11.6875 C 6.921875 -8.707031 7.503906 -6.597656 8.671875 -5.359375 C 9.847656 -4.128906 11.585938 -3.515625 13.890625 -3.515625 C 15.367188 -3.515625 16.941406 -3.5625 18.609375 -3.65625 C 20.285156 -3.757812 21.691406 -3.894531 22.828125 -4.0625 C 22.890625 -4.0625 22.9375 -4.0625 22.96875 -4.0625 C 23.007812 -4.0625 23.046875 -4.0625 23.078125 -4.0625 C 23.273438 -4.0625 23.457031 -4.007812 23.625 -3.90625 C 23.789062 -3.8125 23.875 -3.628906 23.875 -3.359375 L 23.875 -1.65625 C 23.875 -1.320312 23.804688 -1.0625 23.671875 -0.875 C 23.546875 -0.695312 23.28125 -0.570312 22.875 -0.5 C 21.4375 -0.226562 20 -0.0195312 18.5625 0.125 C 17.125 0.269531 15.566406 0.34375 13.890625 0.34375 C 12.453125 0.34375 11.054688 0.15625 9.703125 -0.21875 C 8.347656 -0.601562 7.128906 -1.25 6.046875 -2.15625 C 4.960938 -3.0625 4.101562 -4.289062 3.46875 -5.84375 C 2.832031 -7.394531 2.515625 -9.34375 2.515625 -11.6875 L 2.515625 -16.203125 C 2.515625 -19.785156 3.472656 -22.640625 5.390625 -24.765625 C 7.316406 -26.890625 10.066406 -27.953125 13.640625 -27.953125 C 17.328125 -27.953125 20.085938 -26.890625 21.921875 -24.765625 C 23.765625 -22.640625 24.6875 -19.785156 24.6875 -16.203125 Z M 20.21875 -15.75 L 20.21875 -16.203125 C 20.21875 -19.046875 19.671875 -21.066406 18.578125 -22.265625 C 17.492188 -23.472656 15.847656 -24.078125 13.640625 -24.078125 C 11.503906 -24.078125 9.847656 -23.441406 8.671875 -22.171875 C 7.503906 -20.898438 6.921875 -18.910156 6.921875 -16.203125 L 6.921875 -15.75 Z M 20.21875 -15.75 "/></g></g></g><g fill="#ff00ff" fill-opacity="1"><g transform="translate(167.879309, 140.585016)"><g><path d="M 8.328125 -1 C 8.328125 -0.769531 8.242188 -0.546875 8.078125 -0.328125 C 7.910156 -0.109375 7.691406 0 7.421875 0 L 4.8125 0 C 4.582031 0 4.375 -0.0976562 4.1875 -0.296875 C 4 -0.503906 3.90625 -0.738281 3.90625 -1 L 3.90625 -36.78125 C 3.90625 -37.039062 3.988281 -37.265625 4.15625 -37.453125 C 4.332031 -37.640625 4.550781 -37.734375 4.8125 -37.734375 L 7.421875 -37.734375 C 8.023438 -37.734375 8.328125 -37.414062 8.328125 -36.78125 Z M 8.328125 -1 "/></g></g></g><g fill="#ff00ff" fill-opacity="1"><g transform="translate(174.146654, 140.585016)"><g/></g></g><g fill="#ff00ff" fill-opacity="1"><g transform="translate(180.564477, 140.585016)"><g><path d="M 28.390625 -10.28125 C 28.390625 -8.175781 28 -6.4375 27.21875 -5.0625 C 26.4375 -3.695312 25.363281 -2.613281 24 -1.8125 C 22.644531 -1.007812 21.085938 -0.445312 19.328125 -0.125 C 17.578125 0.1875 15.71875 0.34375 13.75 0.34375 C 12.101562 0.34375 10.570312 0.300781 9.15625 0.21875 C 7.738281 0.132812 6.539062 0.03125 5.5625 -0.09375 C 5 -0.164062 4.582031 -0.332031 4.3125 -0.59375 C 4.039062 -0.863281 3.90625 -1.316406 3.90625 -1.953125 L 3.90625 -35.375 C 3.90625 -36.507812 4.441406 -37.128906 5.515625 -37.234375 C 6.347656 -37.328125 7.472656 -37.414062 8.890625 -37.5 C 10.316406 -37.582031 11.851562 -37.625 13.5 -37.625 C 16.175781 -37.625 18.625 -37.335938 20.84375 -36.765625 C 23.070312 -36.203125 24.851562 -35.226562 26.1875 -33.84375 C 27.53125 -32.457031 28.203125 -30.492188 28.203125 -27.953125 L 28.203125 -27.140625 C 28.203125 -25.304688 27.734375 -23.703125 26.796875 -22.328125 C 25.859375 -20.953125 24.535156 -19.929688 22.828125 -19.265625 C 24.566406 -18.660156 25.925781 -17.640625 26.90625 -16.203125 C 27.894531 -14.765625 28.390625 -13.078125 28.390625 -11.140625 Z M 23.625 -27.140625 L 23.625 -27.953125 C 23.625 -29.554688 23.207031 -30.773438 22.375 -31.609375 C 21.539062 -32.441406 20.363281 -33.007812 18.84375 -33.3125 C 17.320312 -33.613281 15.539062 -33.765625 13.5 -33.765625 C 12.65625 -33.765625 11.789062 -33.75 10.90625 -33.71875 C 10.019531 -33.6875 9.226562 -33.648438 8.53125 -33.609375 L 8.53125 -21.171875 L 16.25 -21.171875 C 18.195312 -21.171875 19.703125 -21.445312 20.765625 -22 C 21.835938 -22.550781 22.582031 -23.285156 23 -24.203125 C 23.414062 -25.128906 23.625 -26.109375 23.625 -27.140625 Z M 23.828125 -10.28125 L 23.828125 -11.140625 C 23.828125 -12.242188 23.609375 -13.28125 23.171875 -14.25 C 22.742188 -15.21875 21.976562 -16.003906 20.875 -16.609375 C 19.769531 -17.210938 18.226562 -17.515625 16.25 -17.515625 L 8.53125 -17.515625 L 8.53125 -3.71875 C 9.363281 -3.675781 10.222656 -3.628906 11.109375 -3.578125 C 11.992188 -3.535156 12.875 -3.515625 13.75 -3.515625 C 15.820312 -3.515625 17.609375 -3.707031 19.109375 -4.09375 C 20.617188 -4.476562 21.78125 -5.15625 22.59375 -6.125 C 23.414062 -7.09375 23.828125 -8.476562 23.828125 -10.28125 Z M 23.828125 -10.28125 "/></g></g></g><g fill="#ff00ff" fill-opacity="1"><g transform="translate(205.489948, 140.585016)"><g><path d="M 24.828125 -11.890625 C 24.828125 -8.210938 23.882812 -5.253906 22 -3.015625 C 20.113281 -0.773438 17.328125 0.34375 13.640625 0.34375 C 9.960938 0.34375 7.1875 -0.773438 5.3125 -3.015625 C 3.445312 -5.253906 2.515625 -8.210938 2.515625 -11.890625 L 2.515625 -15.703125 C 2.515625 -19.378906 3.445312 -22.335938 5.3125 -24.578125 C 7.1875 -26.828125 9.960938 -27.953125 13.640625 -27.953125 C 17.328125 -27.953125 20.113281 -26.828125 22 -24.578125 C 23.882812 -22.335938 24.828125 -19.378906 24.828125 -15.703125 Z M 20.421875 -11.890625 L 20.421875 -15.703125 C 20.421875 -18.273438 19.882812 -20.3125 18.8125 -21.8125 C 17.738281 -23.320312 16.015625 -24.078125 13.640625 -24.078125 C 11.304688 -24.078125 9.601562 -23.320312 8.53125 -21.8125 C 7.457031 -20.3125 6.921875 -18.273438 6.921875 -15.703125 L 6.921875 -11.890625 C 6.921875 -9.347656 7.457031 -7.316406 8.53125 -5.796875 C 9.601562 -4.273438 11.304688 -3.515625 13.640625 -3.515625 C 15.984375 -3.515625 17.695312 -4.265625 18.78125 -5.765625 C 19.875 -7.273438 20.421875 -9.316406 20.421875 -11.890625 Z M 20.421875 -11.890625 "/></g></g></g><g fill="#ff00ff" fill-opacity="1"><g transform="translate(226.854326, 140.585016)"><g><path d="M 15.859375 -24.890625 C 15.859375 -24.617188 15.796875 -24.414062 15.671875 -24.28125 C 15.554688 -24.144531 15.265625 -24.078125 14.796875 -24.078125 C 13.085938 -24.078125 11.738281 -24.039062 10.75 -23.96875 C 9.769531 -23.90625 8.796875 -23.773438 7.828125 -23.578125 L 7.828125 -1 C 7.828125 -0.769531 7.742188 -0.546875 7.578125 -0.328125 C 7.410156 -0.109375 7.191406 0 6.921875 0 L 4.3125 0 C 4.082031 0 3.875 -0.0976562 3.6875 -0.296875 C 3.5 -0.503906 3.40625 -0.738281 3.40625 -1 L 3.40625 -25.390625 C 3.40625 -25.890625 3.707031 -26.273438 4.3125 -26.546875 C 5.75 -27.179688 7.335938 -27.570312 9.078125 -27.71875 C 10.816406 -27.875 12.722656 -27.953125 14.796875 -27.953125 C 15.128906 -27.953125 15.390625 -27.914062 15.578125 -27.84375 C 15.765625 -27.78125 15.859375 -27.5625 15.859375 -27.1875 Z M 15.859375 -24.890625 "/></g></g></g><g fill="#ff00ff" fill-opacity="1"><g transform="translate(238.638856, 140.585016)"><g><path d="M 24.640625 -12.046875 C 24.640625 -8.296875 23.757812 -5.289062 22 -3.03125 C 20.238281 -0.78125 17.472656 0.34375 13.703125 0.34375 C 12.191406 0.34375 10.664062 0.273438 9.125 0.140625 C 7.59375 0.015625 6.039062 -0.195312 4.46875 -0.5 C 4.03125 -0.570312 3.742188 -0.695312 3.609375 -0.875 C 3.472656 -1.0625 3.40625 -1.320312 3.40625 -1.65625 L 3.40625 -36.78125 C 3.40625 -37.039062 3.488281 -37.265625 3.65625 -37.453125 C 3.820312 -37.640625 4.039062 -37.734375 4.3125 -37.734375 L 6.875 -37.734375 C 7.144531 -37.734375 7.367188 -37.640625 7.546875 -37.453125 C 7.734375 -37.265625 7.828125 -37.039062 7.828125 -36.78125 L 7.828125 -27.4375 C 8.796875 -27.601562 9.816406 -27.726562 10.890625 -27.8125 C 11.960938 -27.90625 12.898438 -27.953125 13.703125 -27.953125 C 17.347656 -27.953125 20.082031 -26.890625 21.90625 -24.765625 C 23.726562 -22.640625 24.640625 -19.601562 24.640625 -15.65625 Z M 20.21875 -12.046875 L 20.21875 -15.65625 C 20.21875 -18.332031 19.75 -20.40625 18.8125 -21.875 C 17.875 -23.34375 16.171875 -24.078125 13.703125 -24.078125 C 12.929688 -24.078125 11.96875 -24.0625 10.8125 -24.03125 C 9.65625 -24 8.660156 -23.898438 7.828125 -23.734375 L 7.828125 -3.8125 C 8.691406 -3.75 9.675781 -3.679688 10.78125 -3.609375 C 11.882812 -3.546875 12.859375 -3.515625 13.703125 -3.515625 C 16.171875 -3.515625 17.875 -4.25 18.8125 -5.71875 C 19.75 -7.1875 20.21875 -9.296875 20.21875 -12.046875 Z M 20.21875 -12.046875 "/></g></g></g><g fill="#ff00ff" fill-opacity="1"><g transform="translate(259.802608, 140.585016)"><g><path d="M 23.734375 -1.953125 C 23.734375 -1.617188 23.671875 -1.367188 23.546875 -1.203125 C 23.429688 -1.035156 23.140625 -0.898438 22.671875 -0.796875 C 21.335938 -0.460938 19.847656 -0.191406 18.203125 0.015625 C 16.566406 0.234375 14.984375 0.34375 13.453125 0.34375 C 9.703125 0.34375 6.941406 -0.78125 5.171875 -3.03125 C 3.398438 -5.289062 2.515625 -8.296875 2.515625 -12.046875 L 2.515625 -15.546875 C 2.515625 -19.328125 3.398438 -22.335938 5.171875 -24.578125 C 6.941406 -26.828125 9.703125 -27.953125 13.453125 -27.953125 C 14.953125 -27.953125 16.53125 -27.84375 18.1875 -27.625 C 19.84375 -27.40625 21.335938 -27.128906 22.671875 -26.796875 C 23.140625 -26.691406 23.429688 -26.5625 23.546875 -26.40625 C 23.671875 -26.257812 23.734375 -26.003906 23.734375 -25.640625 Z M 19.3125 -3.859375 L 19.3125 -23.734375 C 18.644531 -23.867188 17.765625 -23.984375 16.671875 -24.078125 C 15.585938 -24.179688 14.515625 -24.234375 13.453125 -24.234375 C 10.972656 -24.234375 9.265625 -23.453125 8.328125 -21.890625 C 7.390625 -20.335938 6.921875 -18.222656 6.921875 -15.546875 L 6.921875 -12.046875 C 6.921875 -9.398438 7.390625 -7.289062 8.328125 -5.71875 C 9.265625 -4.144531 10.972656 -3.359375 13.453125 -3.359375 C 14.515625 -3.359375 15.582031 -3.40625 16.65625 -3.5 C 17.726562 -3.601562 18.613281 -3.722656 19.3125 -3.859375 Z M 19.3125 -3.859375 "/></g></g></g><g fill="#00ffff" fill-opacity="1"><g transform="translate(86.912286, 140.585016)"><g><path d="M 8.984375 -1 C 8.984375 -0.769531 8.898438 -0.546875 8.734375 -0.328125 C 8.566406 -0.109375 8.347656 0 8.078125 0 L 5.3125 0 C 5.082031 0 4.875 -0.0976562 4.6875 -0.296875 C 4.507812 -0.503906 4.421875 -0.738281 4.421875 -1 L 4.421875 -36.328125 C 4.421875 -36.585938 4.503906 -36.8125 4.671875 -37 C 4.835938 -37.1875 5.050781 -37.28125 5.3125 -37.28125 L 8.078125 -37.28125 C 8.679688 -37.28125 8.984375 -36.960938 8.984375 -36.328125 Z M 8.984375 -1 "/></g></g></g><g fill="#00ffff" fill-opacity="1"><g transform="translate(94.333229, 140.585016)"><g><path d="M 20.875 -6.921875 C 20.875 -4.378906 20.007812 -2.53125 18.28125 -1.375 C 16.5625 -0.226562 14.296875 0.34375 11.484375 0.34375 C 10.890625 0.34375 10.125 0.316406 9.1875 0.265625 C 8.25 0.222656 7.285156 0.148438 6.296875 0.046875 C 5.304688 -0.046875 4.394531 -0.195312 3.5625 -0.40625 C 2.863281 -0.570312 2.515625 -0.90625 2.515625 -1.40625 L 2.515625 -3.15625 C 2.515625 -3.65625 2.8125 -3.90625 3.40625 -3.90625 C 3.476562 -3.90625 3.519531 -3.90625 3.53125 -3.90625 C 3.550781 -3.90625 3.578125 -3.90625 3.609375 -3.90625 C 4.410156 -3.8125 5.3125 -3.722656 6.3125 -3.640625 C 7.320312 -3.554688 8.285156 -3.488281 9.203125 -3.4375 C 10.128906 -3.382812 10.890625 -3.359375 11.484375 -3.359375 C 13.128906 -3.359375 14.367188 -3.617188 15.203125 -4.140625 C 16.035156 -4.660156 16.453125 -5.585938 16.453125 -6.921875 C 16.453125 -7.691406 16.179688 -8.367188 15.640625 -8.953125 C 15.109375 -9.535156 14.125 -10.25 12.6875 -11.09375 L 7.625 -14.09375 C 6.082031 -15.03125 4.84375 -16.066406 3.90625 -17.203125 C 2.976562 -18.347656 2.515625 -19.703125 2.515625 -21.265625 C 2.515625 -23.003906 2.914062 -24.359375 3.71875 -25.328125 C 4.519531 -26.304688 5.601562 -26.988281 6.96875 -27.375 C 8.34375 -27.757812 9.882812 -27.953125 11.59375 -27.953125 C 13 -27.953125 14.359375 -27.890625 15.671875 -27.765625 C 16.992188 -27.648438 18.242188 -27.492188 19.421875 -27.296875 C 20.054688 -27.191406 20.375 -26.859375 20.375 -26.296875 L 20.375 -24.640625 C 20.375 -24.066406 20.085938 -23.78125 19.515625 -23.78125 C 19.484375 -23.78125 19.457031 -23.78125 19.4375 -23.78125 C 19.425781 -23.78125 19.398438 -23.78125 19.359375 -23.78125 C 18.492188 -23.84375 17.332031 -23.925781 15.875 -24.03125 C 14.425781 -24.132812 13 -24.1875 11.59375 -24.1875 C 10.1875 -24.1875 9.054688 -24.015625 8.203125 -23.671875 C 7.347656 -23.335938 6.921875 -22.535156 6.921875 -21.265625 C 6.921875 -20.535156 7.210938 -19.882812 7.796875 -19.3125 C 8.390625 -18.75 9.253906 -18.128906 10.390625 -17.453125 L 15.359375 -14.5 C 17.429688 -13.257812 18.867188 -12.050781 19.671875 -10.875 C 20.472656 -9.707031 20.875 -8.390625 20.875 -6.921875 Z M 20.875 -6.921875 "/></g></g></g><g fill="#00ffff" fill-opacity="1"><g transform="translate(111.735263, 140.585016)"><g><path d="M 15.859375 -24.890625 C 15.859375 -24.617188 15.796875 -24.414062 15.671875 -24.28125 C 15.554688 -24.144531 15.265625 -24.078125 14.796875 -24.078125 C 13.085938 -24.078125 11.738281 -24.039062 10.75 -23.96875 C 9.769531 -23.90625 8.796875 -23.773438 7.828125 -23.578125 L 7.828125 -1 C 7.828125 -0.769531 7.742188 -0.546875 7.578125 -0.328125 C 7.410156 -0.109375 7.191406 0 6.921875 0 L 4.3125 0 C 4.082031 0 3.875 -0.0976562 3.6875 -0.296875 C 3.5 -0.503906 3.40625 -0.738281 3.40625 -1 L 3.40625 -25.390625 C 3.40625 -25.890625 3.707031 -26.273438 4.3125 -26.546875 C 5.75 -27.179688 7.335938 -27.570312 9.078125 -27.71875 C 10.816406 -27.875 12.722656 -27.953125 14.796875 -27.953125 C 15.128906 -27.953125 15.390625 -27.914062 15.578125 -27.84375 C 15.765625 -27.78125 15.859375 -27.5625 15.859375 -27.1875 Z M 15.859375 -24.890625 "/></g></g></g><g fill="#00ffff" fill-opacity="1"><g transform="translate(123.519793, 140.585016)"><g><path d="M 23.734375 -1.953125 C 23.734375 -1.617188 23.671875 -1.367188 23.546875 -1.203125 C 23.429688 -1.035156 23.140625 -0.898438 22.671875 -0.796875 C 21.335938 -0.460938 19.847656 -0.191406 18.203125 0.015625 C 16.566406 0.234375 14.984375 0.34375 13.453125 0.34375 C 9.703125 0.34375 6.941406 -0.78125 5.171875 -3.03125 C 3.398438 -5.289062 2.515625 -8.296875 2.515625 -12.046875 L 2.515625 -15.546875 C 2.515625 -19.328125 3.398438 -22.335938 5.171875 -24.578125 C 6.941406 -26.828125 9.703125 -27.953125 13.453125 -27.953125 C 14.953125 -27.953125 16.53125 -27.84375 18.1875 -27.625 C 19.84375 -27.40625 21.335938 -27.128906 22.671875 -26.796875 C 23.140625 -26.691406 23.429688 -26.5625 23.546875 -26.40625 C 23.671875 -26.257812 23.734375 -26.003906 23.734375 -25.640625 Z M 19.3125 -3.859375 L 19.3125 -23.734375 C 18.644531 -23.867188 17.765625 -23.984375 16.671875 -24.078125 C 15.585938 -24.179688 14.515625 -24.234375 13.453125 -24.234375 C 10.972656 -24.234375 9.265625 -23.453125 8.328125 -21.890625 C 7.390625 -20.335938 6.921875 -18.222656 6.921875 -15.546875 L 6.921875 -12.046875 C 6.921875 -9.398438 7.390625 -7.289062 8.328125 -5.71875 C 9.265625 -4.144531 10.972656 -3.359375 13.453125 -3.359375 C 14.515625 -3.359375 15.582031 -3.40625 16.65625 -3.5 C 17.726562 -3.601562 18.613281 -3.722656 19.3125 -3.859375 Z M 19.3125 -3.859375 "/></g></g></g><g fill="#00ffff" fill-opacity="1"><g transform="translate(144.683545, 140.585016)"><g><path d="M 24.6875 -13.5 C 24.6875 -12.757812 24.367188 -12.390625 23.734375 -12.390625 L 6.921875 -12.390625 L 6.921875 -11.6875 C 6.921875 -8.707031 7.503906 -6.597656 8.671875 -5.359375 C 9.847656 -4.128906 11.585938 -3.515625 13.890625 -3.515625 C 15.367188 -3.515625 16.941406 -3.5625 18.609375 -3.65625 C 20.285156 -3.757812 21.691406 -3.894531 22.828125 -4.0625 C 22.890625 -4.0625 22.9375 -4.0625 22.96875 -4.0625 C 23.007812 -4.0625 23.046875 -4.0625 23.078125 -4.0625 C 23.273438 -4.0625 23.457031 -4.007812 23.625 -3.90625 C 23.789062 -3.8125 23.875 -3.628906 23.875 -3.359375 L 23.875 -1.65625 C 23.875 -1.320312 23.804688 -1.0625 23.671875 -0.875 C 23.546875 -0.695312 23.28125 -0.570312 22.875 -0.5 C 21.4375 -0.226562 20 -0.0195312 18.5625 0.125 C 17.125 0.269531 15.566406 0.34375 13.890625 0.34375 C 12.453125 0.34375 11.054688 0.15625 9.703125 -0.21875 C 8.347656 -0.601562 7.128906 -1.25 6.046875 -2.15625 C 4.960938 -3.0625 4.101562 -4.289062 3.46875 -5.84375 C 2.832031 -7.394531 2.515625 -9.34375 2.515625 -11.6875 L 2.515625 -16.203125 C 2.515625 -19.785156 3.472656 -22.640625 5.390625 -24.765625 C 7.316406 -26.890625 10.066406 -27.953125 13.640625 -27.953125 C 17.328125 -27.953125 20.085938 -26.890625 21.921875 -24.765625 C 23.765625 -22.640625 24.6875 -19.785156 24.6875 -16.203125 Z M 20.21875 -15.75 L 20.21875 -16.203125 C 20.21875 -19.046875 19.671875 -21.066406 18.578125 -22.265625 C 17.492188 -23.472656 15.847656 -24.078125 13.640625 -24.078125 C 11.503906 -24.078125 9.847656 -23.441406 8.671875 -22.171875 C 7.503906 -20.898438 6.921875 -18.910156 6.921875 -16.203125 L 6.921875 -15.75 Z M 20.21875 -15.75 "/></g></g></g><g fill="#00ffff" fill-opacity="1"><g transform="translate(165.997764, 140.585016)"><g><path d="M 8.328125 -1 C 8.328125 -0.769531 8.242188 -0.546875 8.078125 -0.328125 C 7.910156 -0.109375 7.691406 0 7.421875 0 L 4.8125 0 C 4.582031 0 4.375 -0.0976562 4.1875 -0.296875 C 4 -0.503906 3.90625 -0.738281 3.90625 -1 L 3.90625 -36.78125 C 3.90625 -37.039062 3.988281 -37.265625 4.15625 -37.453125 C 4.332031 -37.640625 4.550781 -37.734375 4.8125 -37.734375 L 7.421875 -37.734375 C 8.023438 -37.734375 8.328125 -37.414062 8.328125 -36.78125 Z M 8.328125 -1 "/></g></g></g><g fill="#00ffff" fill-opacity="1"><g transform="translate(172.265109, 140.585016)"><g/></g></g><g fill="#00ffff" fill-opacity="1"><g transform="translate(178.682933, 140.585016)"><g><path d="M 28.390625 -10.28125 C 28.390625 -8.175781 28 -6.4375 27.21875 -5.0625 C 26.4375 -3.695312 25.363281 -2.613281 24 -1.8125 C 22.644531 -1.007812 21.085938 -0.445312 19.328125 -0.125 C 17.578125 0.1875 15.71875 0.34375 13.75 0.34375 C 12.101562 0.34375 10.570312 0.300781 9.15625 0.21875 C 7.738281 0.132812 6.539062 0.03125 5.5625 -0.09375 C 5 -0.164062 4.582031 -0.332031 4.3125 -0.59375 C 4.039062 -0.863281 3.90625 -1.316406 3.90625 -1.953125 L 3.90625 -35.375 C 3.90625 -36.507812 4.441406 -37.128906 5.515625 -37.234375 C 6.347656 -37.328125 7.472656 -37.414062 8.890625 -37.5 C 10.316406 -37.582031 11.851562 -37.625 13.5 -37.625 C 16.175781 -37.625 18.625 -37.335938 20.84375 -36.765625 C 23.070312 -36.203125 24.851562 -35.226562 26.1875 -33.84375 C 27.53125 -32.457031 28.203125 -30.492188 28.203125 -27.953125 L 28.203125 -27.140625 C 28.203125 -25.304688 27.734375 -23.703125 26.796875 -22.328125 C 25.859375 -20.953125 24.535156 -19.929688 22.828125 -19.265625 C 24.566406 -18.660156 25.925781 -17.640625 26.90625 -16.203125 C 27.894531 -14.765625 28.390625 -13.078125 28.390625 -11.140625 Z M 23.625 -27.140625 L 23.625 -27.953125 C 23.625 -29.554688 23.207031 -30.773438 22.375 -31.609375 C 21.539062 -32.441406 20.363281 -33.007812 18.84375 -33.3125 C 17.320312 -33.613281 15.539062 -33.765625 13.5 -33.765625 C 12.65625 -33.765625 11.789062 -33.75 10.90625 -33.71875 C 10.019531 -33.6875 9.226562 -33.648438 8.53125 -33.609375 L 8.53125 -21.171875 L 16.25 -21.171875 C 18.195312 -21.171875 19.703125 -21.445312 20.765625 -22 C 21.835938 -22.550781 22.582031 -23.285156 23 -24.203125 C 23.414062 -25.128906 23.625 -26.109375 23.625 -27.140625 Z M 23.828125 -10.28125 L 23.828125 -11.140625 C 23.828125 -12.242188 23.609375 -13.28125 23.171875 -14.25 C 22.742188 -15.21875 21.976562 -16.003906 20.875 -16.609375 C 19.769531 -17.210938 18.226562 -17.515625 16.25 -17.515625 L 8.53125 -17.515625 L 8.53125 -3.71875 C 9.363281 -3.675781 10.222656 -3.628906 11.109375 -3.578125 C 11.992188 -3.535156 12.875 -3.515625 13.75 -3.515625 C 15.820312 -3.515625 17.609375 -3.707031 19.109375 -4.09375 C 20.617188 -4.476562 21.78125 -5.15625 22.59375 -6.125 C 23.414062 -7.09375 23.828125 -8.476562 23.828125 -10.28125 Z M 23.828125 -10.28125 "/></g></g></g><g fill="#00ffff" fill-opacity="1"><g transform="translate(203.608403, 140.585016)"><g><path d="M 24.828125 -11.890625 C 24.828125 -8.210938 23.882812 -5.253906 22 -3.015625 C 20.113281 -0.773438 17.328125 0.34375 13.640625 0.34375 C 9.960938 0.34375 7.1875 -0.773438 5.3125 -3.015625 C 3.445312 -5.253906 2.515625 -8.210938 2.515625 -11.890625 L 2.515625 -15.703125 C 2.515625 -19.378906 3.445312 -22.335938 5.3125 -24.578125 C 7.1875 -26.828125 9.960938 -27.953125 13.640625 -27.953125 C 17.328125 -27.953125 20.113281 -26.828125 22 -24.578125 C 23.882812 -22.335938 24.828125 -19.378906 24.828125 -15.703125 Z M 20.421875 -11.890625 L 20.421875 -15.703125 C 20.421875 -18.273438 19.882812 -20.3125 18.8125 -21.8125 C 17.738281 -23.320312 16.015625 -24.078125 13.640625 -24.078125 C 11.304688 -24.078125 9.601562 -23.320312 8.53125 -21.8125 C 7.457031 -20.3125 6.921875 -18.273438 6.921875 -15.703125 L 6.921875 -11.890625 C 6.921875 -9.347656 7.457031 -7.316406 8.53125 -5.796875 C 9.601562 -4.273438 11.304688 -3.515625 13.640625 -3.515625 C 15.984375 -3.515625 17.695312 -4.265625 18.78125 -5.765625 C 19.875 -7.273438 20.421875 -9.316406 20.421875 -11.890625 Z M 20.421875 -11.890625 "/></g></g></g><g fill="#00ffff" fill-opacity="1"><g transform="translate(224.972782, 140.585016)"><g><path d="M 15.859375 -24.890625 C 15.859375 -24.617188 15.796875 -24.414062 15.671875 -24.28125 C 15.554688 -24.144531 15.265625 -24.078125 14.796875 -24.078125 C 13.085938 -24.078125 11.738281 -24.039062 10.75 -23.96875 C 9.769531 -23.90625 8.796875 -23.773438 7.828125 -23.578125 L 7.828125 -1 C 7.828125 -0.769531 7.742188 -0.546875 7.578125 -0.328125 C 7.410156 -0.109375 7.191406 0 6.921875 0 L 4.3125 0 C 4.082031 0 3.875 -0.0976562 3.6875 -0.296875 C 3.5 -0.503906 3.40625 -0.738281 3.40625 -1 L 3.40625 -25.390625 C 3.40625 -25.890625 3.707031 -26.273438 4.3125 -26.546875 C 5.75 -27.179688 7.335938 -27.570312 9.078125 -27.71875 C 10.816406 -27.875 12.722656 -27.953125 14.796875 -27.953125 C 15.128906 -27.953125 15.390625 -27.914062 15.578125 -27.84375 C 15.765625 -27.78125 15.859375 -27.5625 15.859375 -27.1875 Z M 15.859375 -24.890625 "/></g></g></g><g fill="#00ffff" fill-opacity="1"><g transform="translate(236.757312, 140.585016)"><g><path d="M 24.640625 -12.046875 C 24.640625 -8.296875 23.757812 -5.289062 22 -3.03125 C 20.238281 -0.78125 17.472656 0.34375 13.703125 0.34375 C 12.191406 0.34375 10.664062 0.273438 9.125 0.140625 C 7.59375 0.015625 6.039062 -0.195312 4.46875 -0.5 C 4.03125 -0.570312 3.742188 -0.695312 3.609375 -0.875 C 3.472656 -1.0625 3.40625 -1.320312 3.40625 -1.65625 L 3.40625 -36.78125 C 3.40625 -37.039062 3.488281 -37.265625 3.65625 -37.453125 C 3.820312 -37.640625 4.039062 -37.734375 4.3125 -37.734375 L 6.875 -37.734375 C 7.144531 -37.734375 7.367188 -37.640625 7.546875 -37.453125 C 7.734375 -37.265625 7.828125 -37.039062 7.828125 -36.78125 L 7.828125 -27.4375 C 8.796875 -27.601562 9.816406 -27.726562 10.890625 -27.8125 C 11.960938 -27.90625 12.898438 -27.953125 13.703125 -27.953125 C 17.347656 -27.953125 20.082031 -26.890625 21.90625 -24.765625 C 23.726562 -22.640625 24.640625 -19.601562 24.640625 -15.65625 Z M 20.21875 -12.046875 L 20.21875 -15.65625 C 20.21875 -18.332031 19.75 -20.40625 18.8125 -21.875 C 17.875 -23.34375 16.171875 -24.078125 13.703125 -24.078125 C 12.929688 -24.078125 11.96875 -24.0625 10.8125 -24.03125 C 9.65625 -24 8.660156 -23.898438 7.828125 -23.734375 L 7.828125 -3.8125 C 8.691406 -3.75 9.675781 -3.679688 10.78125 -3.609375 C 11.882812 -3.546875 12.859375 -3.515625 13.703125 -3.515625 C 16.171875 -3.515625 17.875 -4.25 18.8125 -5.71875 C 19.75 -7.1875 20.21875 -9.296875 20.21875 -12.046875 Z M 20.21875 -12.046875 "/></g></g></g><g fill="#00ffff" fill-opacity="1"><g transform="translate(257.921064, 140.585016)"><g><path d="M 23.734375 -1.953125 C 23.734375 -1.617188 23.671875 -1.367188 23.546875 -1.203125 C 23.429688 -1.035156 23.140625 -0.898438 22.671875 -0.796875 C 21.335938 -0.460938 19.847656 -0.191406 18.203125 0.015625 C 16.566406 0.234375 14.984375 0.34375 13.453125 0.34375 C 9.703125 0.34375 6.941406 -0.78125 5.171875 -3.03125 C 3.398438 -5.289062 2.515625 -8.296875 2.515625 -12.046875 L 2.515625 -15.546875 C 2.515625 -19.328125 3.398438 -22.335938 5.171875 -24.578125 C 6.941406 -26.828125 9.703125 -27.953125 13.453125 -27.953125 C 14.953125 -27.953125 16.53125 -27.84375 18.1875 -27.625 C 19.84375 -27.40625 21.335938 -27.128906 22.671875 -26.796875 C 23.140625 -26.691406 23.429688 -26.5625 23.546875 -26.40625 C 23.671875 -26.257812 23.734375 -26.003906 23.734375 -25.640625 Z M 19.3125 -3.859375 L 19.3125 -23.734375 C 18.644531 -23.867188 17.765625 -23.984375 16.671875 -24.078125 C 15.585938 -24.179688 14.515625 -24.234375 13.453125 -24.234375 C 10.972656 -24.234375 9.265625 -23.453125 8.328125 -21.890625 C 7.390625 -20.335938 6.921875 -18.222656 6.921875 -15.546875 L 6.921875 -12.046875 C 6.921875 -9.398438 7.390625 -7.289062 8.328125 -5.71875 C 9.265625 -4.144531 10.972656 -3.359375 13.453125 -3.359375 C 14.515625 -3.359375 15.582031 -3.40625 16.65625 -3.5 C 17.726562 -3.601562 18.613281 -3.722656 19.3125 -3.859375 Z M 19.3125 -3.859375 "/></g></g></g><g fill="#004aad" fill-opacity="1"><g transform="translate(87.853058, 140.585016)"><g><path d="M 8.984375 -1 C 8.984375 -0.769531 8.898438 -0.546875 8.734375 -0.328125 C 8.566406 -0.109375 8.347656 0 8.078125 0 L 5.3125 0 C 5.082031 0 4.875 -0.0976562 4.6875 -0.296875 C 4.507812 -0.503906 4.421875 -0.738281 4.421875 -1 L 4.421875 -36.328125 C 4.421875 -36.585938 4.503906 -36.8125 4.671875 -37 C 4.835938 -37.1875 5.050781 -37.28125 5.3125 -37.28125 L 8.078125 -37.28125 C 8.679688 -37.28125 8.984375 -36.960938 8.984375 -36.328125 Z M 8.984375 -1 "/></g></g></g><g fill="#004aad" fill-opacity="1"><g transform="translate(95.274001, 140.585016)"><g><path d="M 20.875 -6.921875 C 20.875 -4.378906 20.007812 -2.53125 18.28125 -1.375 C 16.5625 -0.226562 14.296875 0.34375 11.484375 0.34375 C 10.890625 0.34375 10.125 0.316406 9.1875 0.265625 C 8.25 0.222656 7.285156 0.148438 6.296875 0.046875 C 5.304688 -0.046875 4.394531 -0.195312 3.5625 -0.40625 C 2.863281 -0.570312 2.515625 -0.90625 2.515625 -1.40625 L 2.515625 -3.15625 C 2.515625 -3.65625 2.8125 -3.90625 3.40625 -3.90625 C 3.476562 -3.90625 3.519531 -3.90625 3.53125 -3.90625 C 3.550781 -3.90625 3.578125 -3.90625 3.609375 -3.90625 C 4.410156 -3.8125 5.3125 -3.722656 6.3125 -3.640625 C 7.320312 -3.554688 8.285156 -3.488281 9.203125 -3.4375 C 10.128906 -3.382812 10.890625 -3.359375 11.484375 -3.359375 C 13.128906 -3.359375 14.367188 -3.617188 15.203125 -4.140625 C 16.035156 -4.660156 16.453125 -5.585938 16.453125 -6.921875 C 16.453125 -7.691406 16.179688 -8.367188 15.640625 -8.953125 C 15.109375 -9.535156 14.125 -10.25 12.6875 -11.09375 L 7.625 -14.09375 C 6.082031 -15.03125 4.84375 -16.066406 3.90625 -17.203125 C 2.976562 -18.347656 2.515625 -19.703125 2.515625 -21.265625 C 2.515625 -23.003906 2.914062 -24.359375 3.71875 -25.328125 C 4.519531 -26.304688 5.601562 -26.988281 6.96875 -27.375 C 8.34375 -27.757812 9.882812 -27.953125 11.59375 -27.953125 C 13 -27.953125 14.359375 -27.890625 15.671875 -27.765625 C 16.992188 -27.648438 18.242188 -27.492188 19.421875 -27.296875 C 20.054688 -27.191406 20.375 -26.859375 20.375 -26.296875 L 20.375 -24.640625 C 20.375 -24.066406 20.085938 -23.78125 19.515625 -23.78125 C 19.484375 -23.78125 19.457031 -23.78125 19.4375 -23.78125 C 19.425781 -23.78125 19.398438 -23.78125 19.359375 -23.78125 C 18.492188 -23.84375 17.332031 -23.925781 15.875 -24.03125 C 14.425781 -24.132812 13 -24.1875 11.59375 -24.1875 C 10.1875 -24.1875 9.054688 -24.015625 8.203125 -23.671875 C 7.347656 -23.335938 6.921875 -22.535156 6.921875 -21.265625 C 6.921875 -20.535156 7.210938 -19.882812 7.796875 -19.3125 C 8.390625 -18.75 9.253906 -18.128906 10.390625 -17.453125 L 15.359375 -14.5 C 17.429688 -13.257812 18.867188 -12.050781 19.671875 -10.875 C 20.472656 -9.707031 20.875 -8.390625 20.875 -6.921875 Z M 20.875 -6.921875 "/></g></g></g><g fill="#004aad" fill-opacity="1"><g transform="translate(112.676035, 140.585016)"><g><path d="M 15.859375 -24.890625 C 15.859375 -24.617188 15.796875 -24.414062 15.671875 -24.28125 C 15.554688 -24.144531 15.265625 -24.078125 14.796875 -24.078125 C 13.085938 -24.078125 11.738281 -24.039062 10.75 -23.96875 C 9.769531 -23.90625 8.796875 -23.773438 7.828125 -23.578125 L 7.828125 -1 C 7.828125 -0.769531 7.742188 -0.546875 7.578125 -0.328125 C 7.410156 -0.109375 7.191406 0 6.921875 0 L 4.3125 0 C 4.082031 0 3.875 -0.0976562 3.6875 -0.296875 C 3.5 -0.503906 3.40625 -0.738281 3.40625 -1 L 3.40625 -25.390625 C 3.40625 -25.890625 3.707031 -26.273438 4.3125 -26.546875 C 5.75 -27.179688 7.335938 -27.570312 9.078125 -27.71875 C 10.816406 -27.875 12.722656 -27.953125 14.796875 -27.953125 C 15.128906 -27.953125 15.390625 -27.914062 15.578125 -27.84375 C 15.765625 -27.78125 15.859375 -27.5625 15.859375 -27.1875 Z M 15.859375 -24.890625 "/></g></g></g><g fill="#004aad" fill-opacity="1"><g transform="translate(124.460565, 140.585016)"><g><path d="M 23.734375 -1.953125 C 23.734375 -1.617188 23.671875 -1.367188 23.546875 -1.203125 C 23.429688 -1.035156 23.140625 -0.898438 22.671875 -0.796875 C 21.335938 -0.460938 19.847656 -0.191406 18.203125 0.015625 C 16.566406 0.234375 14.984375 0.34375 13.453125 0.34375 C 9.703125 0.34375 6.941406 -0.78125 5.171875 -3.03125 C 3.398438 -5.289062 2.515625 -8.296875 2.515625 -12.046875 L 2.515625 -15.546875 C 2.515625 -19.328125 3.398438 -22.335938 5.171875 -24.578125 C 6.941406 -26.828125 9.703125 -27.953125 13.453125 -27.953125 C 14.953125 -27.953125 16.53125 -27.84375 18.1875 -27.625 C 19.84375 -27.40625 21.335938 -27.128906 22.671875 -26.796875 C 23.140625 -26.691406 23.429688 -26.5625 23.546875 -26.40625 C 23.671875 -26.257812 23.734375 -26.003906 23.734375 -25.640625 Z M 19.3125 -3.859375 L 19.3125 -23.734375 C 18.644531 -23.867188 17.765625 -23.984375 16.671875 -24.078125 C 15.585938 -24.179688 14.515625 -24.234375 13.453125 -24.234375 C 10.972656 -24.234375 9.265625 -23.453125 8.328125 -21.890625 C 7.390625 -20.335938 6.921875 -18.222656 6.921875 -15.546875 L 6.921875 -12.046875 C 6.921875 -9.398438 7.390625 -7.289062 8.328125 -5.71875 C 9.265625 -4.144531 10.972656 -3.359375 13.453125 -3.359375 C 14.515625 -3.359375 15.582031 -3.40625 16.65625 -3.5 C 17.726562 -3.601562 18.613281 -3.722656 19.3125 -3.859375 Z M 19.3125 -3.859375 "/></g></g></g><g fill="#004aad" fill-opacity="1"><g transform="translate(145.624317, 140.585016)"><g><path d="M 24.6875 -13.5 C 24.6875 -12.757812 24.367188 -12.390625 23.734375 -12.390625 L 6.921875 -12.390625 L 6.921875 -11.6875 C 6.921875 -8.707031 7.503906 -6.597656 8.671875 -5.359375 C 9.847656 -4.128906 11.585938 -3.515625 13.890625 -3.515625 C 15.367188 -3.515625 16.941406 -3.5625 18.609375 -3.65625 C 20.285156 -3.757812 21.691406 -3.894531 22.828125 -4.0625 C 22.890625 -4.0625 22.9375 -4.0625 22.96875 -4.0625 C 23.007812 -4.0625 23.046875 -4.0625 23.078125 -4.0625 C 23.273438 -4.0625 23.457031 -4.007812 23.625 -3.90625 C 23.789062 -3.8125 23.875 -3.628906 23.875 -3.359375 L 23.875 -1.65625 C 23.875 -1.320312 23.804688 -1.0625 23.671875 -0.875 C 23.546875 -0.695312 23.28125 -0.570312 22.875 -0.5 C 21.4375 -0.226562 20 -0.0195312 18.5625 0.125 C 17.125 0.269531 15.566406 0.34375 13.890625 0.34375 C 12.453125 0.34375 11.054688 0.15625 9.703125 -0.21875 C 8.347656 -0.601562 7.128906 -1.25 6.046875 -2.15625 C 4.960938 -3.0625 4.101562 -4.289062 3.46875 -5.84375 C 2.832031 -7.394531 2.515625 -9.34375 2.515625 -11.6875 L 2.515625 -16.203125 C 2.515625 -19.785156 3.472656 -22.640625 5.390625 -24.765625 C 7.316406 -26.890625 10.066406 -27.953125 13.640625 -27.953125 C 17.328125 -27.953125 20.085938 -26.890625 21.921875 -24.765625 C 23.765625 -22.640625 24.6875 -19.785156 24.6875 -16.203125 Z M 20.21875 -15.75 L 20.21875 -16.203125 C 20.21875 -19.046875 19.671875 -21.066406 18.578125 -22.265625 C 17.492188 -23.472656 15.847656 -24.078125 13.640625 -24.078125 C 11.503906 -24.078125 9.847656 -23.441406 8.671875 -22.171875 C 7.503906 -20.898438 6.921875 -18.910156 6.921875 -16.203125 L 6.921875 -15.75 Z M 20.21875 -15.75 "/></g></g></g><g fill="#004aad" fill-opacity="1"><g transform="translate(166.938536, 140.585016)"><g><path d="M 8.328125 -1 C 8.328125 -0.769531 8.242188 -0.546875 8.078125 -0.328125 C 7.910156 -0.109375 7.691406 0 7.421875 0 L 4.8125 0 C 4.582031 0 4.375 -0.0976562 4.1875 -0.296875 C 4 -0.503906 3.90625 -0.738281 3.90625 -1 L 3.90625 -36.78125 C 3.90625 -37.039062 3.988281 -37.265625 4.15625 -37.453125 C 4.332031 -37.640625 4.550781 -37.734375 4.8125 -37.734375 L 7.421875 -37.734375 C 8.023438 -37.734375 8.328125 -37.414062 8.328125 -36.78125 Z M 8.328125 -1 "/></g></g></g><g fill="#004aad" fill-opacity="1"><g transform="translate(173.205881, 140.585016)"><g/></g></g><g fill="#004aad" fill-opacity="1"><g transform="translate(179.623705, 140.585016)"><g><path d="M 28.390625 -10.28125 C 28.390625 -8.175781 28 -6.4375 27.21875 -5.0625 C 26.4375 -3.695312 25.363281 -2.613281 24 -1.8125 C 22.644531 -1.007812 21.085938 -0.445312 19.328125 -0.125 C 17.578125 0.1875 15.71875 0.34375 13.75 0.34375 C 12.101562 0.34375 10.570312 0.300781 9.15625 0.21875 C 7.738281 0.132812 6.539062 0.03125 5.5625 -0.09375 C 5 -0.164062 4.582031 -0.332031 4.3125 -0.59375 C 4.039062 -0.863281 3.90625 -1.316406 3.90625 -1.953125 L 3.90625 -35.375 C 3.90625 -36.507812 4.441406 -37.128906 5.515625 -37.234375 C 6.347656 -37.328125 7.472656 -37.414062 8.890625 -37.5 C 10.316406 -37.582031 11.851562 -37.625 13.5 -37.625 C 16.175781 -37.625 18.625 -37.335938 20.84375 -36.765625 C 23.070312 -36.203125 24.851562 -35.226562 26.1875 -33.84375 C 27.53125 -32.457031 28.203125 -30.492188 28.203125 -27.953125 L 28.203125 -27.140625 C 28.203125 -25.304688 27.734375 -23.703125 26.796875 -22.328125 C 25.859375 -20.953125 24.535156 -19.929688 22.828125 -19.265625 C 24.566406 -18.660156 25.925781 -17.640625 26.90625 -16.203125 C 27.894531 -14.765625 28.390625 -13.078125 28.390625 -11.140625 Z M 23.625 -27.140625 L 23.625 -27.953125 C 23.625 -29.554688 23.207031 -30.773438 22.375 -31.609375 C 21.539062 -32.441406 20.363281 -33.007812 18.84375 -33.3125 C 17.320312 -33.613281 15.539062 -33.765625 13.5 -33.765625 C 12.65625 -33.765625 11.789062 -33.75 10.90625 -33.71875 C 10.019531 -33.6875 9.226562 -33.648438 8.53125 -33.609375 L 8.53125 -21.171875 L 16.25 -21.171875 C 18.195312 -21.171875 19.703125 -21.445312 20.765625 -22 C 21.835938 -22.550781 22.582031 -23.285156 23 -24.203125 C 23.414062 -25.128906 23.625 -26.109375 23.625 -27.140625 Z M 23.828125 -10.28125 L 23.828125 -11.140625 C 23.828125 -12.242188 23.609375 -13.28125 23.171875 -14.25 C 22.742188 -15.21875 21.976562 -16.003906 20.875 -16.609375 C 19.769531 -17.210938 18.226562 -17.515625 16.25 -17.515625 L 8.53125 -17.515625 L 8.53125 -3.71875 C 9.363281 -3.675781 10.222656 -3.628906 11.109375 -3.578125 C 11.992188 -3.535156 12.875 -3.515625 13.75 -3.515625 C 15.820312 -3.515625 17.609375 -3.707031 19.109375 -4.09375 C 20.617188 -4.476562 21.78125 -5.15625 22.59375 -6.125 C 23.414062 -7.09375 23.828125 -8.476562 23.828125 -10.28125 Z M 23.828125 -10.28125 "/></g></g></g><g fill="#004aad" fill-opacity="1"><g transform="translate(204.549175, 140.585016)"><g><path d="M 24.828125 -11.890625 C 24.828125 -8.210938 23.882812 -5.253906 22 -3.015625 C 20.113281 -0.773438 17.328125 0.34375 13.640625 0.34375 C 9.960938 0.34375 7.1875 -0.773438 5.3125 -3.015625 C 3.445312 -5.253906 2.515625 -8.210938 2.515625 -11.890625 L 2.515625 -15.703125 C 2.515625 -19.378906 3.445312 -22.335938 5.3125 -24.578125 C 7.1875 -26.828125 9.960938 -27.953125 13.640625 -27.953125 C 17.328125 -27.953125 20.113281 -26.828125 22 -24.578125 C 23.882812 -22.335938 24.828125 -19.378906 24.828125 -15.703125 Z M 20.421875 -11.890625 L 20.421875 -15.703125 C 20.421875 -18.273438 19.882812 -20.3125 18.8125 -21.8125 C 17.738281 -23.320312 16.015625 -24.078125 13.640625 -24.078125 C 11.304688 -24.078125 9.601562 -23.320312 8.53125 -21.8125 C 7.457031 -20.3125 6.921875 -18.273438 6.921875 -15.703125 L 6.921875 -11.890625 C 6.921875 -9.347656 7.457031 -7.316406 8.53125 -5.796875 C 9.601562 -4.273438 11.304688 -3.515625 13.640625 -3.515625 C 15.984375 -3.515625 17.695312 -4.265625 18.78125 -5.765625 C 19.875 -7.273438 20.421875 -9.316406 20.421875 -11.890625 Z M 20.421875 -11.890625 "/></g></g></g><g fill="#004aad" fill-opacity="1"><g transform="translate(225.913554, 140.585016)"><g><path d="M 15.859375 -24.890625 C 15.859375 -24.617188 15.796875 -24.414062 15.671875 -24.28125 C 15.554688 -24.144531 15.265625 -24.078125 14.796875 -24.078125 C 13.085938 -24.078125 11.738281 -24.039062 10.75 -23.96875 C 9.769531 -23.90625 8.796875 -23.773438 7.828125 -23.578125 L 7.828125 -1 C 7.828125 -0.769531 7.742188 -0.546875 7.578125 -0.328125 C 7.410156 -0.109375 7.191406 0 6.921875 0 L 4.3125 0 C 4.082031 0 3.875 -0.0976562 3.6875 -0.296875 C 3.5 -0.503906 3.40625 -0.738281 3.40625 -1 L 3.40625 -25.390625 C 3.40625 -25.890625 3.707031 -26.273438 4.3125 -26.546875 C 5.75 -27.179688 7.335938 -27.570312 9.078125 -27.71875 C 10.816406 -27.875 12.722656 -27.953125 14.796875 -27.953125 C 15.128906 -27.953125 15.390625 -27.914062 15.578125 -27.84375 C 15.765625 -27.78125 15.859375 -27.5625 15.859375 -27.1875 Z M 15.859375 -24.890625 "/></g></g></g><g fill="#004aad" fill-opacity="1"><g transform="translate(237.698084, 140.585016)"><g><path d="M 24.640625 -12.046875 C 24.640625 -8.296875 23.757812 -5.289062 22 -3.03125 C 20.238281 -0.78125 17.472656 0.34375 13.703125 0.34375 C 12.191406 0.34375 10.664062 0.273438 9.125 0.140625 C 7.59375 0.015625 6.039062 -0.195312 4.46875 -0.5 C 4.03125 -0.570312 3.742188 -0.695312 3.609375 -0.875 C 3.472656 -1.0625 3.40625 -1.320312 3.40625 -1.65625 L 3.40625 -36.78125 C 3.40625 -37.039062 3.488281 -37.265625 3.65625 -37.453125 C 3.820312 -37.640625 4.039062 -37.734375 4.3125 -37.734375 L 6.875 -37.734375 C 7.144531 -37.734375 7.367188 -37.640625 7.546875 -37.453125 C 7.734375 -37.265625 7.828125 -37.039062 7.828125 -36.78125 L 7.828125 -27.4375 C 8.796875 -27.601562 9.816406 -27.726562 10.890625 -27.8125 C 11.960938 -27.90625 12.898438 -27.953125 13.703125 -27.953125 C 17.347656 -27.953125 20.082031 -26.890625 21.90625 -24.765625 C 23.726562 -22.640625 24.640625 -19.601562 24.640625 -15.65625 Z M 20.21875 -12.046875 L 20.21875 -15.65625 C 20.21875 -18.332031 19.75 -20.40625 18.8125 -21.875 C 17.875 -23.34375 16.171875 -24.078125 13.703125 -24.078125 C 12.929688 -24.078125 11.96875 -24.0625 10.8125 -24.03125 C 9.65625 -24 8.660156 -23.898438 7.828125 -23.734375 L 7.828125 -3.8125 C 8.691406 -3.75 9.675781 -3.679688 10.78125 -3.609375 C 11.882812 -3.546875 12.859375 -3.515625 13.703125 -3.515625 C 16.171875 -3.515625 17.875 -4.25 18.8125 -5.71875 C 19.75 -7.1875 20.21875 -9.296875 20.21875 -12.046875 Z M 20.21875 -12.046875 "/></g></g></g><g fill="#004aad" fill-opacity="1"><g transform="translate(258.861836, 140.585016)"><g><path d="M 23.734375 -1.953125 C 23.734375 -1.617188 23.671875 -1.367188 23.546875 -1.203125 C 23.429688 -1.035156 23.140625 -0.898438 22.671875 -0.796875 C 21.335938 -0.460938 19.847656 -0.191406 18.203125 0.015625 C 16.566406 0.234375 14.984375 0.34375 13.453125 0.34375 C 9.703125 0.34375 6.941406 -0.78125 5.171875 -3.03125 C 3.398438 -5.289062 2.515625 -8.296875 2.515625 -12.046875 L 2.515625 -15.546875 C 2.515625 -19.328125 3.398438 -22.335938 5.171875 -24.578125 C 6.941406 -26.828125 9.703125 -27.953125 13.453125 -27.953125 C 14.953125 -27.953125 16.53125 -27.84375 18.1875 -27.625 C 19.84375 -27.40625 21.335938 -27.128906 22.671875 -26.796875 C 23.140625 -26.691406 23.429688 -26.5625 23.546875 -26.40625 C 23.671875 -26.257812 23.734375 -26.003906 23.734375 -25.640625 Z M 19.3125 -3.859375 L 19.3125 -23.734375 C 18.644531 -23.867188 17.765625 -23.984375 16.671875 -24.078125 C 15.585938 -24.179688 14.515625 -24.234375 13.453125 -24.234375 C 10.972656 -24.234375 9.265625 -23.453125 8.328125 -21.890625 C 7.390625 -20.335938 6.921875 -18.222656 6.921875 -15.546875 L 6.921875 -12.046875 C 6.921875 -9.398438 7.390625 -7.289062 8.328125 -5.71875 C 9.265625 -4.144531 10.972656 -3.359375 13.453125 -3.359375 C 14.515625 -3.359375 15.582031 -3.40625 16.65625 -3.5 C 17.726562 -3.601562 18.613281 -3.722656 19.3125 -3.859375 Z M 19.3125 -3.859375 "/></g></g></g></svg>
